<svg width="32" height="32" viewBox="0 0 32 32" fill="none" xmlns="http://www.w3.org/2000/svg">
<g clip-path="url(#clip0_30572_11223)">
<path d="M23.9629 19.3797C31.8304 15.1883 32.5235 11.5327 31.0457 3.79678C30.955 3.32241 30.3903 3.11706 30.0147 3.42062C24.8373 7.60463 22.2876 10.2777 19.0095 14.9676C18.7601 15.3244 18.9585 15.812 19.256 16.1297C19.7533 16.6608 19.7099 17.4437 20.3395 18.09C21.2321 18.7812 22.3408 18.7675 23.0824 19.2656C23.343 19.4407 23.6859 19.5273 23.9629 19.3797Z" fill="#5C6AF1"/>
<path d="M13.0006 21.9018C4.11073 21.2425 2.00112 18.1777 0.230753 10.5034C0.122194 10.0329 0.556031 9.61701 1.02222 9.74313C7.44784 11.4815 10.8595 12.8979 15.7518 15.8657C16.1239 16.0915 16.1392 16.6177 15.9953 17.0285C15.7547 17.7151 16.1104 18.4138 15.7952 19.2593C15.2575 20.2519 14.2377 20.6869 13.7602 21.442C13.5924 21.7074 13.3137 21.925 13.0006 21.9018Z" fill="#5C6AF1"/>
<path d="M15.0043 12.7797C15.2054 13.0846 15.5505 13.5878 15.8222 13.9345C16.0088 14.1726 16.2902 14.1187 16.4389 13.8553L16.697 13.3979C16.8054 13.2058 16.8043 12.9701 16.6747 12.7917C16.4781 12.5212 16.1545 12.1373 15.7958 11.9606C15.287 11.71 14.5579 11.8025 14.0658 11.913C13.9129 11.9474 13.9179 12.1601 14.0663 12.2105C14.4128 12.3283 14.8311 12.5171 15.0043 12.7797Z" fill="#5C6AF1"/>
<path d="M16.5724 12.0083C16.4376 12.2586 16.2277 12.6655 16.08 12.9936C15.9539 13.2736 16.1364 13.4824 16.4429 13.4637L16.8725 13.4375C17.0746 13.4252 17.2593 13.3154 17.3458 13.1324C17.4664 12.8771 17.6114 12.4957 17.5852 12.18C17.5484 11.736 17.1622 11.2956 16.8517 11.0089C16.7391 10.905 16.5683 11.0254 16.6003 11.1753C16.6597 11.4535 16.6905 11.7889 16.5724 12.0083Z" fill="#5C6AF1"/>
<path d="M12.5761 15.0478C13.7757 13.6481 15.0055 13.3029 16.8209 12.983C18.4236 12.7006 19.4678 12.6698 20.9778 13.2768C23.0306 14.1021 24.6209 17.8344 24.832 18.349C24.8485 18.3893 24.8688 18.4268 24.8938 18.4626C25.653 19.5484 26.164 19.7923 26.8191 19.8462C27.0422 19.8645 27.1514 20.1357 26.9881 20.2889L26.3046 20.9302C26.2136 21.0156 26.3152 21.162 26.4271 21.1065C26.5462 21.0473 26.632 21.1883 26.521 21.2616C24.9526 22.2983 21.9506 24.1328 19.5802 24.6864C16.6748 25.365 12.3729 24.87 10.5061 24.5989C10.3329 24.5738 10.3345 24.3701 10.5094 24.3646C10.6903 24.3589 10.7475 24.0829 10.5758 24.0255L9.73777 23.7453C9.50655 23.668 9.48792 23.3484 9.70394 23.2353C10.642 22.7445 11.181 22.2345 11.4173 20.7676C11.4243 20.724 11.4261 20.6813 11.4232 20.6372C11.3901 20.1224 11.22 16.6301 12.5761 15.0478Z" fill="#5C6AF1"/>
<path d="M20.6932 21.4144C19.5596 21.7376 17.9971 22.0533 16.3486 22.3185C16.0345 22.369 15.9654 22.7638 16.2557 22.894C17.0038 23.2294 18.1017 23.6105 18.9376 23.4327C19.725 23.2652 20.5156 22.5513 21.0654 21.9462C21.2931 21.6956 21.0189 21.3216 20.6932 21.4144Z" fill="white"/>
</g>
<defs>
<clipPath id="clip0_30572_11223">
<rect width="32" height="32" fill="white"/>
</clipPath>
</defs>
</svg>
