<svg width="266" height="266" viewBox="0 0 266 266" fill="none" xmlns="http://www.w3.org/2000/svg">
<path d="M80.5789 4.02894C80.5789 4.96794 80.5789 8.05788 80.5789 8.05788C80.5789 8.05788 77.8361 8.05788 76.5499 8.05769C75.5455 8.05788 72.521 8.05769 72.521 8.05769C72.521 8.05769 72.521 5.24966 72.521 4.02884C72.5211 1.80385 74.3248 0 76.5498 0C78.7749 0 80.5789 1.80384 80.5789 4.02894Z" fill="#696969"/>
<path d="M96.6946 4.02894C96.6946 4.96794 96.6946 8.05788 96.6946 8.05788C96.6946 8.05788 93.9518 8.05788 92.6657 8.05769C91.6613 8.05788 88.6367 8.05769 88.6367 8.05769C88.6367 8.05769 88.6367 5.24966 88.6367 4.02884C88.6368 1.80385 90.4405 0 92.6656 0C94.8907 0 96.6946 1.80384 96.6946 4.02894Z" fill="#696969"/>
<path d="M112.81 4.02894C112.81 4.96794 112.81 8.05788 112.81 8.05788C112.81 8.05788 110.068 8.05788 108.781 8.05769C107.777 8.05788 104.752 8.05769 104.752 8.05769C104.752 8.05769 104.752 5.24966 104.752 4.02884C104.753 1.80385 106.556 0 108.781 0C111.006 0 112.81 1.80384 112.81 4.02894Z" fill="#696969"/>
<path d="M120.868 8.05788H128.926V0C124.476 1.61158e-05 120.868 3.60758 120.868 8.05788Z" fill="#696969"/>
<path d="M136.984 0H128.926V8.05788H136.984V0Z" fill="#696969"/>
<path d="M145.042 0H136.984V8.05788H145.042V0Z" fill="#696969"/>
<path d="M149.071 8.05788C148.132 8.05788 145.042 8.05788 145.042 8.05788C145.042 8.05788 145.042 5.31486 145.042 4.02894C145.042 3.02454 145.042 0 145.042 0C145.042 0 147.85 0 149.071 0C151.296 0 153.1 1.80382 153.1 4.02894C153.1 6.25394 151.296 8.05788 149.071 8.05788Z" fill="#696969"/>
<path d="M169.215 8.05788H177.273V0C172.823 1.61158e-05 169.215 3.60758 169.215 8.05788Z" fill="#696969"/>
<path d="M181.302 8.05788C180.363 8.05788 177.273 8.05788 177.273 8.05788C177.273 8.05788 177.273 5.31486 177.273 4.02894C177.273 3.02454 177.273 0 177.273 0C177.273 0 180.082 0 181.302 0C183.527 0 185.331 1.80382 185.331 4.02894C185.331 6.25394 183.527 8.05788 181.302 8.05788Z" fill="#696969"/>
<path d="M201.447 4.02894C201.447 4.96794 201.447 8.05788 201.447 8.05788C201.447 8.05788 198.704 8.05788 197.418 8.05769C196.414 8.05788 193.389 8.05769 193.389 8.05769C193.389 8.05769 193.389 5.24966 193.389 4.02884C193.389 1.80385 195.193 0 197.418 0C199.643 0 201.447 1.80384 201.447 4.02894Z" fill="#696969"/>
<path d="M80.5789 16.1158V8.05789H72.521C72.521 12.5081 76.1286 16.1158 80.5789 16.1158Z" fill="#696969"/>
<path d="M88.6367 8.05789H80.5789V16.1158H88.6367V8.05789Z" fill="#696969"/>
<path d="M96.6946 8.05789H88.6367V16.1158H96.6946V8.05789Z" fill="#696969"/>
<path d="M112.81 16.1158V8.05789H104.752C104.752 12.5081 108.36 16.1158 112.81 16.1158Z" fill="#696969"/>
<path d="M120.868 8.05789H112.81V16.1158H120.868V8.05789Z" fill="#696969"/>
<path d="M128.926 8.05789H120.868V16.1158H128.926V8.05789Z" fill="#696969"/>
<path d="M136.984 8.05789H128.926V16.1158H136.984V8.05789Z" fill="#696969"/>
<path d="M145.042 8.05789H136.984V16.1158H145.042V8.05789Z" fill="#696969"/>
<path d="M153.1 16.1158H161.157V8.05789C156.707 8.05791 153.1 11.6655 153.1 16.1158Z" fill="#696969"/>
<path d="M169.215 8.05789H161.157V16.1158H169.215V8.05789Z" fill="#696969"/>
<path d="M177.273 8.05789H169.215V16.1158H177.273V8.05789Z" fill="#696969"/>
<path d="M201.447 8.05789H193.389V16.1158H201.447V8.05789Z" fill="#696969"/>
<path d="M72.521 20.1447C72.521 21.0837 72.521 24.1736 72.521 24.1736C72.521 24.1736 69.7782 24.1736 68.4921 24.1734C67.4877 24.1736 64.4631 24.1734 64.4631 24.1734C64.4631 24.1734 64.4631 21.3654 64.4631 20.1446C64.4632 17.9196 66.267 16.1158 68.492 16.1158C70.7171 16.1158 72.521 17.9196 72.521 20.1447Z" fill="#696969"/>
<path d="M96.6946 24.1736V16.1158H88.6367C88.6367 20.566 92.2443 24.1736 96.6946 24.1736Z" fill="#696969"/>
<path d="M96.6946 16.1158V24.1736H104.752C104.752 19.7233 101.145 16.1158 96.6946 16.1158Z" fill="#696969"/>
<path d="M145.042 16.1158H136.984V24.1736H145.042V16.1158Z" fill="#696969"/>
<path d="M153.1 16.1158H145.042V24.1736H153.1V16.1158Z" fill="#696969"/>
<path d="M161.157 16.1158H153.1V24.1736C157.55 24.1736 161.157 20.566 161.157 16.1158Z" fill="#696969"/>
<path d="M177.273 16.1158H169.215V24.1736H177.273V16.1158Z" fill="#696969"/>
<path d="M185.331 16.1158H177.273V24.1736H185.331V16.1158Z" fill="#696969"/>
<path d="M193.389 16.1158H185.331V24.1736H193.389V16.1158Z" fill="#696969"/>
<path d="M201.447 16.1158H193.389V24.1736C197.839 24.1736 201.447 20.566 201.447 16.1158Z" fill="#696969"/>
<path d="M64.4631 28.2026C64.4631 27.2635 64.4631 24.1736 64.4631 24.1736C64.4631 24.1736 67.2061 24.1736 68.4921 24.1736C69.4965 24.1736 72.521 24.1736 72.521 24.1736C72.521 24.1736 72.521 26.982 72.521 28.2026C72.521 30.4276 70.7171 32.2315 68.4921 32.2315C66.267 32.2315 64.4631 30.4276 64.4631 28.2026Z" fill="#696969"/>
<path d="M104.752 24.1736H96.6946V32.2315H104.752V24.1736Z" fill="#696969"/>
<path d="M112.81 24.1736H104.752V32.2315H112.81V24.1736Z" fill="#696969"/>
<path d="M120.868 24.1736H112.81V32.2315H120.868V24.1736Z" fill="#696969"/>
<path d="M128.926 24.1736H120.868V32.2315H128.926V24.1736Z" fill="#696969"/>
<path d="M136.984 24.1736H128.926V32.2315H136.984V24.1736Z" fill="#696969"/>
<path d="M145.042 24.1736H136.984V32.2315H145.042V24.1736Z" fill="#696969"/>
<path d="M153.1 24.1736H145.042V32.2315H153.1V24.1736Z" fill="#696969"/>
<path d="M165.186 24.1736C166.125 24.1736 169.215 24.1736 169.215 24.1736C169.215 24.1736 169.215 26.9163 169.215 28.2026C169.215 29.2067 169.215 32.2315 169.215 32.2315C169.215 32.2315 166.408 32.2315 165.186 32.2315C162.961 32.2315 161.157 30.4269 161.157 28.2026C161.157 25.978 162.961 24.1736 165.186 24.1736Z" fill="#696969"/>
<path d="M177.273 24.1736H169.215V32.2315H177.273V24.1736Z" fill="#696969"/>
<path d="M185.331 28.2026C185.331 27.2635 185.331 24.1736 185.331 24.1736C185.331 24.1736 188.074 24.1736 189.36 24.1736C190.365 24.1736 193.389 24.1736 193.389 24.1736C193.389 24.1736 193.389 26.982 193.389 28.2026C193.389 30.4276 191.585 32.2315 189.36 32.2315C187.135 32.2315 185.331 30.4276 185.331 28.2026Z" fill="#696969"/>
<path d="M76.5499 32.2315C78.7752 32.2315 80.5789 34.0353 80.5789 36.2604C80.5789 38.4857 78.7752 40.2894 76.5499 40.2894C74.3248 40.2894 72.521 38.4857 72.521 36.2604C72.521 34.0353 74.3248 32.2315 76.5499 32.2315Z" fill="#696969"/>
<path d="M104.752 32.2315H96.6946V40.2894H104.752V32.2315Z" fill="#696969"/>
<path d="M120.868 40.2894V32.2315H112.81C112.81 36.6817 116.418 40.2894 120.868 40.2894Z" fill="#696969"/>
<path d="M128.926 32.2315H120.868V40.2894H128.926V32.2315Z" fill="#696969"/>
<path d="M136.984 32.2315H128.926V40.2894C133.376 40.2894 136.984 36.6817 136.984 32.2315Z" fill="#696969"/>
<path d="M145.042 36.2604C145.042 35.3214 145.042 32.2315 145.042 32.2315C145.042 32.2315 147.785 32.2315 149.071 32.2315C150.075 32.2315 153.1 32.2315 153.1 32.2315C153.1 32.2315 153.1 35.0399 153.1 36.2604C153.1 38.4855 151.296 40.2894 149.071 40.2894C146.846 40.2894 145.042 38.4855 145.042 36.2604Z" fill="#696969"/>
<path d="M169.215 36.2604C169.215 35.3214 169.215 32.2315 169.215 32.2315C169.215 32.2315 171.958 32.2315 173.244 32.2315C174.249 32.2315 177.273 32.2315 177.273 32.2315C177.273 32.2315 177.273 35.0399 177.273 36.2604C177.273 38.4855 175.469 40.2894 173.244 40.2894C171.019 40.2894 169.215 38.4855 169.215 36.2604Z" fill="#696969"/>
<path d="M92.6657 40.2894C93.6047 40.2894 96.6946 40.2894 96.6946 40.2894C96.6946 40.2894 96.6946 43.032 96.6946 44.3183C96.6946 45.3224 96.6946 48.3473 96.6946 48.3473C96.6946 48.3473 93.8869 48.3473 92.6657 48.3473C90.4398 48.3473 88.6367 46.5427 88.6367 44.3183C88.6367 42.0938 90.4398 40.2894 92.6657 40.2894Z" fill="#696969"/>
<path d="M104.752 40.2894H96.6946V48.3473H104.752V40.2894Z" fill="#696969"/>
<path d="M108.781 48.3473C107.842 48.3473 104.752 48.3473 104.752 48.3473C104.752 48.3473 104.752 45.6043 104.752 44.3183C104.752 43.3139 104.752 40.2894 104.752 40.2894C104.752 40.2894 107.561 40.2894 108.781 40.2894C111.006 40.2894 112.81 42.0932 112.81 44.3183C112.81 46.5433 111.006 48.3473 108.781 48.3473Z" fill="#696969"/>
<path d="M120.868 44.3183C120.868 43.3793 120.868 40.2894 120.868 40.2894C120.868 40.2894 123.611 40.2894 124.897 40.2894C125.902 40.2894 128.926 40.2894 128.926 40.2894C128.926 40.2894 128.926 43.0977 128.926 44.3183C128.926 46.5433 127.122 48.3473 124.897 48.3473C122.672 48.3473 120.868 46.5433 120.868 44.3183Z" fill="#696969"/>
<path d="M141.013 40.2894C143.238 40.2894 145.042 42.0932 145.042 44.3183C145.042 46.5436 143.238 48.3473 141.013 48.3473C138.788 48.3473 136.984 46.5436 136.984 44.3183C136.984 42.0932 138.788 40.2894 141.013 40.2894Z" fill="#696969"/>
<path d="M169.215 44.3183C169.215 45.2573 169.215 48.3473 169.215 48.3473C169.215 48.3473 166.473 48.3473 165.186 48.3471C164.182 48.3473 161.157 48.3471 161.157 48.3471C161.157 48.3471 161.157 45.5391 161.157 44.3182C161.158 42.0933 162.961 40.2894 165.186 40.2894C167.411 40.2894 169.215 42.0932 169.215 44.3183Z" fill="#696969"/>
<path d="M189.36 40.2894C190.299 40.2894 193.389 40.2894 193.389 40.2894C193.389 40.2894 193.389 43.032 193.389 44.3183C193.389 45.3224 193.389 48.3473 193.389 48.3473C193.389 48.3473 190.582 48.3473 189.36 48.3473C187.134 48.3473 185.331 46.5427 185.331 44.3183C185.331 42.0938 187.134 40.2894 189.36 40.2894Z" fill="#696969"/>
<path d="M193.389 40.2894V48.3473H201.447C201.447 43.897 197.839 40.2894 193.389 40.2894Z" fill="#696969"/>
<path d="M68.4921 48.3473C70.7173 48.3473 72.521 50.1511 72.521 52.3762C72.521 54.6014 70.7173 56.4052 68.4921 56.4052C66.267 56.4052 64.4631 54.6014 64.4631 52.3762C64.4631 50.1511 66.267 48.3473 68.4921 48.3473Z" fill="#696969"/>
<path d="M88.6367 52.3762C88.6367 53.3152 88.6367 56.4052 88.6367 56.4052C88.6367 56.4052 85.8939 56.4052 84.6078 56.405C83.6034 56.4052 80.5789 56.405 80.5789 56.405C80.5789 56.405 80.5789 53.5969 80.5789 52.3761C80.579 50.1511 82.3827 48.3473 84.6077 48.3473C86.8328 48.3473 88.6367 50.1511 88.6367 52.3762Z" fill="#696969"/>
<path d="M96.6946 52.3762C96.6946 51.4371 96.6946 48.3473 96.6946 48.3473C96.6946 48.3473 99.4375 48.3473 100.724 48.3473C101.728 48.3473 104.752 48.3473 104.752 48.3473C104.752 48.3473 104.752 51.1556 104.752 52.3762C104.752 54.6012 102.949 56.4052 100.724 56.4052C98.4984 56.4052 96.6946 54.6012 96.6946 52.3762Z" fill="#696969"/>
<path d="M116.839 48.3473C119.064 48.3473 120.868 50.1511 120.868 52.3762C120.868 54.6014 119.064 56.4052 116.839 56.4052C114.614 56.4052 112.81 54.6014 112.81 52.3762C112.81 50.1511 114.614 48.3473 116.839 48.3473Z" fill="#696969"/>
<path d="M132.955 48.3473C135.18 48.3473 136.984 50.1511 136.984 52.3762C136.984 54.6014 135.18 56.4052 132.955 56.4052C130.73 56.4052 128.926 54.6014 128.926 52.3762C128.926 50.1511 130.73 48.3473 132.955 48.3473Z" fill="#696969"/>
<path d="M153.1 52.3762C153.1 53.3152 153.1 56.4052 153.1 56.4052C153.1 56.4052 150.357 56.4052 149.071 56.405C148.066 56.4052 145.042 56.405 145.042 56.405C145.042 56.405 145.042 53.5969 145.042 52.3761C145.042 50.1511 146.846 48.3473 149.071 48.3473C151.296 48.3473 153.1 50.1511 153.1 52.3762Z" fill="#696969"/>
<path d="M169.215 48.3473H161.157V56.4052H169.215V48.3473Z" fill="#696969"/>
<path d="M185.331 52.3762C185.331 53.3152 185.331 56.4052 185.331 56.4052C185.331 56.4052 182.589 56.4052 181.302 56.405C180.298 56.4052 177.273 56.405 177.273 56.405C177.273 56.405 177.273 53.5969 177.273 52.3761C177.274 50.1511 179.077 48.3473 181.302 48.3473C183.527 48.3473 185.331 50.1511 185.331 52.3762Z" fill="#696969"/>
<path d="M201.447 48.3473H193.389V56.4052H201.447V48.3473Z" fill="#696969"/>
<path d="M88.6367 56.4052H80.5789V64.463H88.6367V56.4052Z" fill="#696969"/>
<path d="M92.6657 64.463C91.7266 64.463 88.6367 64.463 88.6367 64.463C88.6367 64.463 88.6367 61.72 88.6367 60.4341C88.6367 59.4297 88.6367 56.4052 88.6367 56.4052C88.6367 56.4052 91.4451 56.4052 92.6657 56.4052C94.8907 56.4052 96.6946 58.209 96.6946 60.4341C96.6946 62.6591 94.8907 64.463 92.6657 64.463Z" fill="#696969"/>
<path d="M124.897 56.4052C127.122 56.4052 128.926 58.209 128.926 60.4341C128.926 62.6593 127.122 64.463 124.897 64.463C122.672 64.463 120.868 62.6593 120.868 60.4341C120.868 58.209 122.672 56.4052 124.897 56.4052Z" fill="#696969"/>
<path d="M141.013 56.4052C141.952 56.4052 145.042 56.4052 145.042 56.4052C145.042 56.4052 145.042 59.1478 145.042 60.4341C145.042 61.4382 145.042 64.463 145.042 64.463C145.042 64.463 142.234 64.463 141.013 64.463C138.787 64.463 136.984 62.6584 136.984 60.4341C136.984 58.2095 138.787 56.4052 141.013 56.4052Z" fill="#696969"/>
<path d="M153.1 56.4052H145.042V64.463C149.492 64.463 153.1 60.8554 153.1 56.4052Z" fill="#696969"/>
<path d="M161.157 60.4341C161.157 59.495 161.157 56.4052 161.157 56.4052C161.157 56.4052 163.9 56.4052 165.186 56.4052C166.191 56.4052 169.215 56.4052 169.215 56.4052C169.215 56.4052 169.215 59.2135 169.215 60.4341C169.215 62.6591 167.411 64.463 165.186 64.463C162.961 64.463 161.157 62.6591 161.157 60.4341Z" fill="#696969"/>
<path d="M185.331 56.4052H177.273V64.463H185.331V56.4052Z" fill="#696969"/>
<path d="M201.447 56.4052H193.389V64.463H201.447V56.4052Z" fill="#696969"/>
<path d="M28.2025 64.463C29.1416 64.463 32.2315 64.463 32.2315 64.463C32.2315 64.463 32.2315 67.2056 32.2315 68.492C32.2315 69.496 32.2315 72.5209 32.2315 72.5209C32.2315 72.5209 29.4238 72.5209 28.2025 72.5209C25.9766 72.5209 24.1736 70.7163 24.1736 68.492C24.1736 66.2674 25.9766 64.463 28.2025 64.463Z" fill="#696969"/>
<path d="M36.2604 72.5209C35.3213 72.5209 32.2314 72.5209 32.2314 72.5209C32.2314 72.5209 32.2314 69.7779 32.2314 68.492C32.2314 67.4876 32.2314 64.463 32.2314 64.463C32.2314 64.463 35.0398 64.463 36.2604 64.463C38.4854 64.463 40.2893 66.2668 40.2893 68.492C40.2893 70.717 38.4854 72.5209 36.2604 72.5209Z" fill="#696969"/>
<path d="M52.3761 64.463C53.3152 64.463 56.405 64.463 56.405 64.463C56.405 64.463 56.405 67.2056 56.405 68.492C56.405 69.496 56.405 72.5209 56.405 72.5209C56.405 72.5209 53.5974 72.5209 52.3761 72.5209C50.1502 72.5209 48.3472 70.7163 48.3472 68.492C48.3472 66.2674 50.1502 64.463 52.3761 64.463Z" fill="#696969"/>
<path d="M56.4053 64.463V72.5209H64.4632C64.4632 68.0706 60.8555 64.463 56.4053 64.463Z" fill="#696969"/>
<path d="M76.5499 64.463C77.489 64.463 80.5789 64.463 80.5789 64.463C80.5789 64.463 80.5789 67.2056 80.5789 68.492C80.5789 69.496 80.5789 72.5209 80.5789 72.5209C80.5789 72.5209 77.7712 72.5209 76.5499 72.5209C74.324 72.5209 72.521 70.7163 72.521 68.492C72.521 66.2674 74.324 64.463 76.5499 64.463Z" fill="#696969"/>
<path d="M88.6367 64.463H80.5789V72.5209C85.0291 72.5209 88.6367 68.9132 88.6367 64.463Z" fill="#696969"/>
<path d="M112.81 68.492C112.81 69.431 112.81 72.5209 112.81 72.5209C112.81 72.5209 110.068 72.5209 108.781 72.5207C107.777 72.5209 104.752 72.5207 104.752 72.5207C104.752 72.5207 104.752 69.7127 104.752 68.4919C104.753 66.2669 106.556 64.463 108.781 64.463C111.006 64.463 112.81 66.2668 112.81 68.492Z" fill="#696969"/>
<path d="M132.955 64.463C135.18 64.463 136.984 66.2668 136.984 68.492C136.984 70.7172 135.18 72.5209 132.955 72.5209C130.73 72.5209 128.926 70.7172 128.926 68.492C128.926 66.2668 130.73 64.463 132.955 64.463Z" fill="#696969"/>
<path d="M185.331 64.463H177.273V72.5209H185.331V64.463Z" fill="#696969"/>
<path d="M193.389 68.492C193.389 67.5529 193.389 64.463 193.389 64.463C193.389 64.463 196.132 64.463 197.418 64.463C198.422 64.463 201.447 64.463 201.447 64.463C201.447 64.463 201.447 67.2714 201.447 68.492C201.447 70.717 199.643 72.5209 197.418 72.5209C195.193 72.5209 193.389 70.717 193.389 68.492Z" fill="#696969"/>
<path d="M233.678 72.5209H241.736V64.463C237.286 64.463 233.678 68.0706 233.678 72.5209Z" fill="#696969"/>
<path d="M241.736 64.463V72.5209H249.794C249.794 68.0706 246.187 64.463 241.736 64.463Z" fill="#696969"/>
<path d="M0 80.5788H8.05788V72.5209C3.60769 72.5209 0 76.1285 0 80.5788Z" fill="#696969"/>
<path d="M12.0868 80.5788C11.1477 80.5788 8.05786 80.5788 8.05786 80.5788C8.05786 80.5788 8.05786 77.8358 8.05786 76.5498C8.05786 75.5454 8.05786 72.5209 8.05786 72.5209C8.05786 72.5209 10.8662 72.5209 12.0868 72.5209C14.3118 72.5209 16.1157 74.3247 16.1157 76.5498C16.1157 78.7748 14.3118 80.5788 12.0868 80.5788Z" fill="#696969"/>
<path d="M64.4632 72.5209H56.4053V80.5788H64.4632V72.5209Z" fill="#696969"/>
<path d="M100.724 72.5209C101.663 72.5209 104.752 72.5209 104.752 72.5209C104.752 72.5209 104.752 75.2635 104.752 76.5498C104.752 77.5539 104.752 80.5788 104.752 80.5788C104.752 80.5788 101.945 80.5788 100.724 80.5788C98.4976 80.5788 96.6946 78.7742 96.6946 76.5498C96.6946 74.3253 98.4976 72.5209 100.724 72.5209Z" fill="#696969"/>
<path d="M112.81 72.5209H104.752V80.5788H112.81V72.5209Z" fill="#696969"/>
<path d="M112.81 72.5209V80.5788H120.868C120.868 76.1285 117.261 72.5209 112.81 72.5209Z" fill="#696969"/>
<path d="M145.042 76.5498C145.042 77.4888 145.042 80.5788 145.042 80.5788C145.042 80.5788 142.299 80.5788 141.013 80.5786C140.008 80.5788 136.984 80.5786 136.984 80.5786C136.984 80.5786 136.984 77.7706 136.984 76.5497C136.984 74.3248 138.788 72.5209 141.013 72.5209C143.238 72.5209 145.042 74.3247 145.042 76.5498Z" fill="#696969"/>
<path d="M169.215 76.5498C169.215 77.4888 169.215 80.5788 169.215 80.5788C169.215 80.5788 166.473 80.5788 165.186 80.5786C164.182 80.5788 161.157 80.5786 161.157 80.5786C161.157 80.5786 161.157 77.7706 161.157 76.5497C161.158 74.3248 162.961 72.5209 165.186 72.5209C167.411 72.5209 169.215 74.3247 169.215 76.5498Z" fill="#696969"/>
<path d="M185.331 80.5788V72.5209H177.273C177.273 76.9711 180.881 80.5788 185.331 80.5788Z" fill="#696969"/>
<path d="M185.331 72.5209V80.5788H193.389C193.389 76.1285 189.782 72.5209 185.331 72.5209Z" fill="#696969"/>
<path d="M209.505 76.5498C209.505 77.4888 209.505 80.5788 209.505 80.5788C209.505 80.5788 206.762 80.5788 205.476 80.5786C204.472 80.5788 201.447 80.5786 201.447 80.5786C201.447 80.5786 201.447 77.7706 201.447 76.5497C201.447 74.3248 203.251 72.5209 205.476 72.5209C207.701 72.5209 209.505 74.3247 209.505 76.5498Z" fill="#696969"/>
<path d="M217.563 80.5788H225.621V72.5209C221.17 72.5209 217.563 76.1285 217.563 80.5788Z" fill="#696969"/>
<path d="M233.678 72.5209H225.621V80.5788H233.678V72.5209Z" fill="#696969"/>
<path d="M241.736 72.5209H233.678V80.5788H241.736V72.5209Z" fill="#696969"/>
<path d="M249.794 72.5209H241.736V80.5788H249.794V72.5209Z" fill="#696969"/>
<path d="M8.05788 80.5788H0V88.6367H8.05788V80.5788Z" fill="#696969"/>
<path d="M16.1157 88.6367H24.1736V80.5788C19.7234 80.5788 16.1157 84.1864 16.1157 88.6367Z" fill="#696969"/>
<path d="M24.1736 80.5788V88.6367H32.2315C32.2315 84.1864 28.6238 80.5788 24.1736 80.5788Z" fill="#696969"/>
<path d="M52.3761 80.5788C53.3152 80.5788 56.405 80.5788 56.405 80.5788C56.405 80.5788 56.405 83.3214 56.405 84.6077C56.405 85.6118 56.405 88.6367 56.405 88.6367C56.405 88.6367 53.5974 88.6367 52.3761 88.6367C50.1502 88.6367 48.3472 86.832 48.3472 84.6077C48.3472 82.3832 50.1502 80.5788 52.3761 80.5788Z" fill="#696969"/>
<path d="M64.4632 80.5788H56.4053V88.6367H64.4632V80.5788Z" fill="#696969"/>
<path d="M64.4631 80.5788V88.6367H72.521C72.521 84.1864 68.9134 80.5788 64.4631 80.5788Z" fill="#696969"/>
<path d="M84.6078 80.5788C85.5469 80.5788 88.6367 80.5788 88.6367 80.5788C88.6367 80.5788 88.6367 83.3214 88.6367 84.6077C88.6367 85.6118 88.6367 88.6367 88.6367 88.6367C88.6367 88.6367 85.8291 88.6367 84.6078 88.6367C82.3819 88.6367 80.5789 86.832 80.5789 84.6077C80.5789 82.3832 82.3819 80.5788 84.6078 80.5788Z" fill="#696969"/>
<path d="M88.6367 80.5788V88.6367H96.6946C96.6946 84.1864 93.087 80.5788 88.6367 80.5788Z" fill="#696969"/>
<path d="M120.868 80.5788H112.81V88.6367H120.868V80.5788Z" fill="#696969"/>
<path d="M128.926 80.5788H120.868V88.6367H128.926V80.5788Z" fill="#696969"/>
<path d="M136.984 80.5788H128.926V88.6367H136.984V80.5788Z" fill="#696969"/>
<path d="M145.042 80.5788H136.984V88.6367H145.042V80.5788Z" fill="#696969"/>
<path d="M149.071 88.6367C148.132 88.6367 145.042 88.6367 145.042 88.6367C145.042 88.6367 145.042 85.8937 145.042 84.6077C145.042 83.6033 145.042 80.5788 145.042 80.5788C145.042 80.5788 147.85 80.5788 149.071 80.5788C151.296 80.5788 153.1 82.3826 153.1 84.6077C153.1 86.8327 151.296 88.6367 149.071 88.6367Z" fill="#696969"/>
<path d="M169.215 88.6367V80.5788H161.157C161.157 85.029 164.765 88.6367 169.215 88.6367Z" fill="#696969"/>
<path d="M173.244 88.6367C172.305 88.6367 169.215 88.6367 169.215 88.6367C169.215 88.6367 169.215 85.8937 169.215 84.6077C169.215 83.6033 169.215 80.5788 169.215 80.5788C169.215 80.5788 172.024 80.5788 173.244 80.5788C175.469 80.5788 177.273 82.3826 177.273 84.6077C177.273 86.8327 175.469 88.6367 173.244 88.6367Z" fill="#696969"/>
<path d="M185.331 84.6077C185.331 83.6687 185.331 80.5788 185.331 80.5788C185.331 80.5788 188.074 80.5788 189.36 80.5788C190.365 80.5788 193.389 80.5788 193.389 80.5788C193.389 80.5788 193.389 83.3871 193.389 84.6077C193.389 86.8327 191.585 88.6367 189.36 88.6367C187.135 88.6367 185.331 86.8327 185.331 84.6077Z" fill="#696969"/>
<path d="M209.505 80.5788H201.447V88.6367H209.505V80.5788Z" fill="#696969"/>
<path d="M217.563 80.5788H209.505V88.6367H217.563V80.5788Z" fill="#696969"/>
<path d="M225.621 80.5788H217.563V88.6367H225.621V80.5788Z" fill="#696969"/>
<path d="M249.794 80.5788H241.736V88.6367H249.794V80.5788Z" fill="#696969"/>
<path d="M257.852 80.5788H249.794V88.6367H257.852V80.5788Z" fill="#696969"/>
<path d="M257.852 80.5788V88.6367H265.91C265.91 84.1864 262.302 80.5788 257.852 80.5788Z" fill="#696969"/>
<path d="M8.05788 88.6367H0V96.6945H8.05788V88.6367Z" fill="#696969"/>
<path d="M16.1157 88.6367H8.05786V96.6945H16.1157V88.6367Z" fill="#696969"/>
<path d="M24.1736 88.6367H16.1157V96.6945H24.1736V88.6367Z" fill="#696969"/>
<path d="M32.2315 88.6367H24.1736V96.6945C28.6238 96.6945 32.2315 93.0869 32.2315 88.6367Z" fill="#696969"/>
<path d="M64.4632 88.6367H56.4053V96.6945H64.4632V88.6367Z" fill="#696969"/>
<path d="M72.521 88.6367H64.4631V96.6945C68.9134 96.6945 72.521 93.0869 72.521 88.6367Z" fill="#696969"/>
<path d="M96.6946 88.6367H88.6367V96.6945H96.6946V88.6367Z" fill="#696969"/>
<path d="M96.6946 88.6367V96.6945H104.752C104.752 92.2442 101.145 88.6367 96.6946 88.6367Z" fill="#696969"/>
<path d="M112.81 92.6656C112.81 91.7265 112.81 88.6367 112.81 88.6367C112.81 88.6367 115.553 88.6367 116.839 88.6367C117.844 88.6367 120.868 88.6367 120.868 88.6367C120.868 88.6367 120.868 91.445 120.868 92.6656C120.868 94.8906 119.064 96.6945 116.839 96.6945C114.614 96.6945 112.81 94.8906 112.81 92.6656Z" fill="#696969"/>
<path d="M145.042 88.6367H136.984V96.6945H145.042V88.6367Z" fill="#696969"/>
<path d="M181.302 88.6367C183.528 88.6367 185.331 90.4405 185.331 92.6656C185.331 94.8908 183.528 96.6945 181.302 96.6945C179.077 96.6945 177.273 94.8908 177.273 92.6656C177.273 90.4405 179.077 88.6367 181.302 88.6367Z" fill="#696969"/>
<path d="M209.505 96.6945V88.6367H201.447C201.447 93.0869 205.055 96.6945 209.505 96.6945Z" fill="#696969"/>
<path d="M217.563 88.6367H209.505V96.6945H217.563V88.6367Z" fill="#696969"/>
<path d="M225.621 88.6367H217.563V96.6945H225.621V88.6367Z" fill="#696969"/>
<path d="M229.65 96.6945C228.71 96.6945 225.621 96.6945 225.621 96.6945C225.621 96.6945 225.621 93.9515 225.621 92.6656C225.621 91.6612 225.621 88.6367 225.621 88.6367C225.621 88.6367 228.429 88.6367 229.65 88.6367C231.875 88.6367 233.678 90.4405 233.678 92.6656C233.678 94.8906 231.875 96.6945 229.65 96.6945Z" fill="#696969"/>
<path d="M249.794 96.6945V88.6367H241.736C241.736 93.0869 245.344 96.6945 249.794 96.6945Z" fill="#696969"/>
<path d="M257.852 88.6367H249.794V96.6945H257.852V88.6367Z" fill="#696969"/>
<path d="M265.91 88.6367H257.852V96.6945H265.91V88.6367Z" fill="#696969"/>
<path d="M8.05788 104.752V96.6945H0C1.61158e-05 101.145 3.60756 104.752 8.05788 104.752Z" fill="#696969"/>
<path d="M16.1157 96.6945H8.05786V104.752H16.1157V96.6945Z" fill="#696969"/>
<path d="M44.3182 96.6945C45.2573 96.6945 48.3472 96.6945 48.3472 96.6945C48.3472 96.6945 48.3472 99.4372 48.3472 100.723C48.3472 101.728 48.3472 104.752 48.3472 104.752C48.3472 104.752 45.5395 104.752 44.3182 104.752C42.0924 104.752 40.2893 102.948 40.2893 100.723C40.2893 98.4989 42.0924 96.6945 44.3182 96.6945Z" fill="#696969"/>
<path d="M56.405 96.6945H48.3472V104.752H56.405V96.6945Z" fill="#696969"/>
<path d="M64.4632 96.6945H56.4053V104.752C60.8555 104.752 64.4632 101.145 64.4632 96.6945Z" fill="#696969"/>
<path d="M96.6946 104.752V96.6945H88.6367C88.6367 101.145 92.2443 104.752 96.6946 104.752Z" fill="#696969"/>
<path d="M104.752 96.6945H96.6946V104.752H104.752V96.6945Z" fill="#696969"/>
<path d="M108.781 104.752C107.842 104.752 104.752 104.752 104.752 104.752C104.752 104.752 104.752 102.009 104.752 100.723C104.752 99.7191 104.752 96.6945 104.752 96.6945C104.752 96.6945 107.561 96.6945 108.781 96.6945C111.006 96.6945 112.81 98.4984 112.81 100.723C112.81 102.948 111.006 104.752 108.781 104.752Z" fill="#696969"/>
<path d="M124.897 96.6945C125.836 96.6945 128.926 96.6945 128.926 96.6945C128.926 96.6945 128.926 99.4372 128.926 100.723C128.926 101.728 128.926 104.752 128.926 104.752C128.926 104.752 126.118 104.752 124.897 104.752C122.671 104.752 120.868 102.948 120.868 100.723C120.868 98.4989 122.671 96.6945 124.897 96.6945Z" fill="#696969"/>
<path d="M136.984 96.6945H128.926V104.752H136.984V96.6945Z" fill="#696969"/>
<path d="M145.042 96.6945H136.984V104.752H145.042V96.6945Z" fill="#696969"/>
<path d="M149.071 104.752C148.132 104.752 145.042 104.752 145.042 104.752C145.042 104.752 145.042 102.009 145.042 100.723C145.042 99.7191 145.042 96.6945 145.042 96.6945C145.042 96.6945 147.85 96.6945 149.071 96.6945C151.296 96.6945 153.1 98.4984 153.1 100.723C153.1 102.948 151.296 104.752 149.071 104.752Z" fill="#696969"/>
<path d="M165.186 96.6945C167.412 96.6945 169.215 98.4984 169.215 100.723C169.215 102.949 167.412 104.752 165.186 104.752C162.961 104.752 161.157 102.949 161.157 100.723C161.157 98.4984 162.961 96.6945 165.186 96.6945Z" fill="#696969"/>
<path d="M189.36 96.6945C190.299 96.6945 193.389 96.6945 193.389 96.6945C193.389 96.6945 193.389 99.4372 193.389 100.723C193.389 101.728 193.389 104.752 193.389 104.752C193.389 104.752 190.582 104.752 189.36 104.752C187.134 104.752 185.331 102.948 185.331 100.723C185.331 98.4989 187.134 96.6945 189.36 96.6945Z" fill="#696969"/>
<path d="M197.418 104.752C196.479 104.752 193.389 104.752 193.389 104.752C193.389 104.752 193.389 102.009 193.389 100.723C193.389 99.7191 193.389 96.6945 193.389 96.6945C193.389 96.6945 196.198 96.6945 197.418 96.6945C199.643 96.6945 201.447 98.4984 201.447 100.723C201.447 102.948 199.643 104.752 197.418 104.752Z" fill="#696969"/>
<path d="M217.563 104.752V96.6945H209.505C209.505 101.145 213.112 104.752 217.563 104.752Z" fill="#696969"/>
<path d="M225.621 96.6945H217.563V104.752C222.013 104.752 225.621 101.145 225.621 96.6945Z" fill="#696969"/>
<path d="M257.852 96.6945H249.794V104.752H257.852V96.6945Z" fill="#696969"/>
<path d="M265.91 96.6945H257.852V104.752C262.302 104.752 265.91 101.145 265.91 96.6945Z" fill="#696969"/>
<path d="M16.1157 104.752H8.05786V112.81H16.1157V104.752Z" fill="#696969"/>
<path d="M20.1447 112.81C19.2056 112.81 16.1157 112.81 16.1157 112.81C16.1157 112.81 16.1157 110.067 16.1157 108.781C16.1157 107.777 16.1157 104.752 16.1157 104.752C16.1157 104.752 18.9241 104.752 20.1447 104.752C22.3697 104.752 24.1736 106.556 24.1736 108.781C24.1736 111.006 22.3697 112.81 20.1447 112.81Z" fill="#696969"/>
<path d="M40.2893 108.781C40.2893 109.72 40.2893 112.81 40.2893 112.81C40.2893 112.81 37.5465 112.81 36.2604 112.81C35.256 112.81 32.2314 112.81 32.2314 112.81C32.2314 112.81 32.2314 110.002 32.2314 108.781C32.2315 106.556 34.0353 104.752 36.2603 104.752C38.4854 104.752 40.2893 106.556 40.2893 108.781Z" fill="#696969"/>
<path d="M249.794 108.781C249.794 107.842 249.794 104.752 249.794 104.752C249.794 104.752 252.537 104.752 253.823 104.752C254.828 104.752 257.852 104.752 257.852 104.752C257.852 104.752 257.852 107.561 257.852 108.781C257.852 111.006 256.048 112.81 253.823 112.81C251.598 112.81 249.794 111.006 249.794 108.781Z" fill="#696969"/>
<path d="M16.1157 112.81H8.05786V120.868H16.1157V112.81Z" fill="#696969"/>
<path d="M24.1736 120.868H32.2315V112.81C27.7813 112.81 24.1736 116.418 24.1736 120.868Z" fill="#696969"/>
<path d="M40.2893 112.81H32.2314V120.868H40.2893V112.81Z" fill="#696969"/>
<path d="M48.3472 112.81H40.2893V120.868H48.3472V112.81Z" fill="#696969"/>
<path d="M52.3761 120.868C51.437 120.868 48.3472 120.868 48.3472 120.868C48.3472 120.868 48.3472 118.125 48.3472 116.839C48.3472 115.835 48.3472 112.81 48.3472 112.81C48.3472 112.81 51.1555 112.81 52.3761 112.81C54.6011 112.81 56.405 114.614 56.405 116.839C56.405 119.064 54.6011 120.868 52.3761 120.868Z" fill="#696969"/>
<path d="M197.418 112.81C198.357 112.81 201.447 112.81 201.447 112.81C201.447 112.81 201.447 115.553 201.447 116.839C201.447 117.843 201.447 120.868 201.447 120.868C201.447 120.868 198.639 120.868 197.418 120.868C195.192 120.868 193.389 119.064 193.389 116.839C193.389 114.615 195.192 112.81 197.418 112.81Z" fill="#696969"/>
<path d="M205.476 120.868C204.537 120.868 201.447 120.868 201.447 120.868C201.447 120.868 201.447 118.125 201.447 116.839C201.447 115.835 201.447 112.81 201.447 112.81C201.447 112.81 204.255 112.81 205.476 112.81C207.701 112.81 209.505 114.614 209.505 116.839C209.505 119.064 207.701 120.868 205.476 120.868Z" fill="#696969"/>
<path d="M233.678 120.868H241.736V112.81C237.286 112.81 233.678 116.418 233.678 120.868Z" fill="#696969"/>
<path d="M241.736 112.81V120.868H249.794C249.794 116.418 246.187 112.81 241.736 112.81Z" fill="#696969"/>
<path d="M4.02894 120.868C4.968 120.868 8.05788 120.868 8.05788 120.868C8.05788 120.868 8.05788 123.611 8.05788 124.897C8.05788 125.901 8.05788 128.926 8.05788 128.926C8.05788 128.926 5.25021 128.926 4.02894 128.926C1.80305 128.926 0 127.121 0 124.897C0 122.673 1.80305 120.868 4.02894 120.868Z" fill="#696969"/>
<path d="M16.1157 120.868H8.05786V128.926H16.1157V120.868Z" fill="#696969"/>
<path d="M24.1736 120.868H16.1157V128.926H24.1736V120.868Z" fill="#696969"/>
<path d="M32.2315 120.868H24.1736V128.926H32.2315V120.868Z" fill="#696969"/>
<path d="M48.3472 120.868H40.2893V128.926H48.3472V120.868Z" fill="#696969"/>
<path d="M68.4921 120.868C70.7173 120.868 72.521 122.672 72.521 124.897C72.521 127.122 70.7173 128.926 68.4921 128.926C66.267 128.926 64.4631 127.122 64.4631 124.897C64.4631 122.672 66.267 120.868 68.4921 120.868Z" fill="#696969"/>
<path d="M217.563 124.897C217.563 125.836 217.563 128.926 217.563 128.926C217.563 128.926 214.82 128.926 213.534 128.926C212.529 128.926 209.505 128.926 209.505 128.926C209.505 128.926 209.505 126.118 209.505 124.897C209.505 122.672 211.309 120.868 213.534 120.868C215.759 120.868 217.563 122.672 217.563 124.897Z" fill="#696969"/>
<path d="M241.736 120.868H233.678V128.926H241.736V120.868Z" fill="#696969"/>
<path d="M249.794 120.868H241.736V128.926C246.187 128.926 249.794 125.318 249.794 120.868Z" fill="#696969"/>
<path d="M24.1736 128.926H16.1157V136.984H24.1736V128.926Z" fill="#696969"/>
<path d="M32.2315 128.926H24.1736V136.984C28.6238 136.984 32.2315 133.376 32.2315 128.926Z" fill="#696969"/>
<path d="M48.3472 128.926H40.2893V136.984H48.3472V128.926Z" fill="#696969"/>
<path d="M56.405 128.926H48.3472V136.984H56.405V128.926Z" fill="#696969"/>
<path d="M56.4053 128.926V136.984H64.4632C64.4632 132.534 60.8555 128.926 56.4053 128.926Z" fill="#696969"/>
<path d="M205.476 128.926C206.415 128.926 209.505 128.926 209.505 128.926C209.505 128.926 209.505 131.669 209.505 132.955C209.505 133.959 209.505 136.984 209.505 136.984C209.505 136.984 206.697 136.984 205.476 136.984C203.25 136.984 201.447 135.179 201.447 132.955C201.447 130.73 203.25 128.926 205.476 128.926Z" fill="#696969"/>
<path d="M217.563 128.926H209.505V136.984H217.563V128.926Z" fill="#696969"/>
<path d="M225.621 136.984H233.678V128.926C229.228 128.926 225.621 132.534 225.621 136.984Z" fill="#696969"/>
<path d="M241.736 128.926H233.678V136.984H241.736V128.926Z" fill="#696969"/>
<path d="M265.91 132.955C265.91 133.894 265.91 136.984 265.91 136.984C265.91 136.984 263.167 136.984 261.881 136.984C260.877 136.984 257.852 136.984 257.852 136.984C257.852 136.984 257.852 134.176 257.852 132.955C257.852 130.73 259.656 128.926 261.881 128.926C264.106 128.926 265.91 130.73 265.91 132.955Z" fill="#696969"/>
<path d="M8.05786 145.042H16.1157V136.984C11.6656 136.984 8.05786 140.592 8.05786 145.042Z" fill="#696969"/>
<path d="M24.1736 136.984H16.1157V145.042H24.1736V136.984Z" fill="#696969"/>
<path d="M40.2893 141.013C40.2893 140.074 40.2893 136.984 40.2893 136.984C40.2893 136.984 43.0322 136.984 44.3182 136.984C45.3226 136.984 48.3472 136.984 48.3472 136.984C48.3472 136.984 48.3472 139.792 48.3472 141.013C48.3472 143.238 46.5433 145.042 44.3182 145.042C42.0931 145.042 40.2893 143.238 40.2893 141.013Z" fill="#696969"/>
<path d="M64.4632 136.984H56.4053V145.042H64.4632V136.984Z" fill="#696969"/>
<path d="M197.418 136.984C199.643 136.984 201.447 138.788 201.447 141.013C201.447 143.238 199.643 145.042 197.418 145.042C195.193 145.042 193.389 143.238 193.389 141.013C193.389 138.788 195.193 136.984 197.418 136.984Z" fill="#696969"/>
<path d="M217.563 145.042V136.984H209.505C209.505 141.434 213.112 145.042 217.563 145.042Z" fill="#696969"/>
<path d="M225.621 136.984H217.563V145.042H225.621V136.984Z" fill="#696969"/>
<path d="M233.678 136.984H225.621V145.042H233.678V136.984Z" fill="#696969"/>
<path d="M241.736 136.984H233.678V145.042H241.736V136.984Z" fill="#696969"/>
<path d="M265.91 136.984H257.852V145.042H265.91V136.984Z" fill="#696969"/>
<path d="M0 153.1H8.05788V145.042C3.60769 145.042 0 148.649 0 153.1Z" fill="#696969"/>
<path d="M16.1157 145.042H8.05786V153.1H16.1157V145.042Z" fill="#696969"/>
<path d="M24.1736 145.042H16.1157V153.1H24.1736V145.042Z" fill="#696969"/>
<path d="M32.2315 145.042H24.1736V153.1H32.2315V145.042Z" fill="#696969"/>
<path d="M36.2604 153.1C35.3213 153.1 32.2314 153.1 32.2314 153.1C32.2314 153.1 32.2314 150.357 32.2314 149.071C32.2314 148.066 32.2314 145.042 32.2314 145.042C32.2314 145.042 35.0398 145.042 36.2604 145.042C38.4854 145.042 40.2893 146.846 40.2893 149.071C40.2893 151.296 38.4854 153.1 36.2604 153.1Z" fill="#696969"/>
<path d="M52.3761 145.042C53.3152 145.042 56.405 145.042 56.405 145.042C56.405 145.042 56.405 147.784 56.405 149.071C56.405 150.075 56.405 153.1 56.405 153.1C56.405 153.1 53.5974 153.1 52.3761 153.1C50.1502 153.1 48.3472 151.295 48.3472 149.071C48.3472 146.846 50.1502 145.042 52.3761 145.042Z" fill="#696969"/>
<path d="M64.4632 145.042H56.4053V153.1H64.4632V145.042Z" fill="#696969"/>
<path d="M68.4921 153.1C67.553 153.1 64.4631 153.1 64.4631 153.1C64.4631 153.1 64.4631 150.357 64.4631 149.071C64.4631 148.066 64.4631 145.042 64.4631 145.042C64.4631 145.042 67.2715 145.042 68.4921 145.042C70.7171 145.042 72.521 146.846 72.521 149.071C72.521 151.296 70.7171 153.1 68.4921 153.1Z" fill="#696969"/>
<path d="M225.621 145.042H217.563V153.1H225.621V145.042Z" fill="#696969"/>
<path d="M241.736 145.042H233.678V153.1H241.736V145.042Z" fill="#696969"/>
<path d="M241.736 145.042V153.1H249.794C249.794 148.649 246.187 145.042 241.736 145.042Z" fill="#696969"/>
<path d="M265.91 145.042H257.852V153.1H265.91V145.042Z" fill="#696969"/>
<path d="M8.05788 161.158V153.1H0C1.61158e-05 157.55 3.60756 161.158 8.05788 161.158Z" fill="#696969"/>
<path d="M16.1157 153.1H8.05786V161.158H16.1157V153.1Z" fill="#696969"/>
<path d="M48.3472 157.129C48.3472 158.068 48.3472 161.158 48.3472 161.158C48.3472 161.158 45.6044 161.158 44.3182 161.157C43.3138 161.158 40.2893 161.157 40.2893 161.157C40.2893 161.157 40.2893 158.349 40.2893 157.129C40.2894 154.904 42.0931 153.1 44.3181 153.1C46.5433 153.1 48.3472 154.904 48.3472 157.129Z" fill="#696969"/>
<path d="M197.418 153.1C199.643 153.1 201.447 154.904 201.447 157.129C201.447 159.354 199.643 161.158 197.418 161.158C195.193 161.158 193.389 159.354 193.389 157.129C193.389 154.904 195.193 153.1 197.418 153.1Z" fill="#696969"/>
<path d="M225.621 153.1H217.563V161.158H225.621V153.1Z" fill="#696969"/>
<path d="M233.678 153.1H225.621V161.158H233.678V153.1Z" fill="#696969"/>
<path d="M241.736 153.1H233.678V161.158H241.736V153.1Z" fill="#696969"/>
<path d="M249.794 153.1H241.736V161.158H249.794V153.1Z" fill="#696969"/>
<path d="M257.852 153.1H249.794V161.158H257.852V153.1Z" fill="#696969"/>
<path d="M265.91 153.1H257.852V161.158H265.91V153.1Z" fill="#696969"/>
<path d="M16.1157 161.158H8.05786V169.215H16.1157V161.158Z" fill="#696969"/>
<path d="M24.1736 161.158H16.1157V169.215H24.1736V161.158Z" fill="#696969"/>
<path d="M24.1736 161.158V169.215H32.2315C32.2315 164.765 28.6238 161.158 24.1736 161.158Z" fill="#696969"/>
<path d="M48.3472 161.158H40.2893V169.215H48.3472V161.158Z" fill="#696969"/>
<path d="M52.3761 169.215C51.437 169.215 48.3472 169.215 48.3472 169.215C48.3472 169.215 48.3472 166.472 48.3472 165.187C48.3472 164.182 48.3472 161.158 48.3472 161.158C48.3472 161.158 51.1555 161.158 52.3761 161.158C54.6011 161.158 56.405 162.961 56.405 165.187C56.405 167.412 54.6011 169.215 52.3761 169.215Z" fill="#696969"/>
<path d="M76.5499 161.158C78.7752 161.158 80.5789 162.961 80.5789 165.187C80.5789 167.412 78.7752 169.215 76.5499 169.215C74.3248 169.215 72.521 167.412 72.521 165.187C72.521 162.961 74.3248 161.158 76.5499 161.158Z" fill="#696969"/>
<path d="M96.6946 169.215H104.752V161.158C100.302 161.158 96.6946 164.765 96.6946 169.215Z" fill="#696969"/>
<path d="M112.81 161.158H104.752V169.215H112.81V161.158Z" fill="#696969"/>
<path d="M116.839 169.215C115.9 169.215 112.81 169.215 112.81 169.215C112.81 169.215 112.81 166.472 112.81 165.187C112.81 164.182 112.81 161.158 112.81 161.158C112.81 161.158 115.619 161.158 116.839 161.158C119.064 161.158 120.868 162.961 120.868 165.187C120.868 167.412 119.064 169.215 116.839 169.215Z" fill="#696969"/>
<path d="M132.955 161.158C133.894 161.158 136.984 161.158 136.984 161.158C136.984 161.158 136.984 163.9 136.984 165.187C136.984 166.191 136.984 169.215 136.984 169.215C136.984 169.215 134.176 169.215 132.955 169.215C130.729 169.215 128.926 167.411 128.926 165.187C128.926 162.962 130.729 161.158 132.955 161.158Z" fill="#696969"/>
<path d="M145.042 161.158H136.984V169.215H145.042V161.158Z" fill="#696969"/>
<path d="M145.042 161.158V169.215H153.1C153.1 164.765 149.492 161.158 145.042 161.158Z" fill="#696969"/>
<path d="M225.621 161.158H217.563V169.215H225.621V161.158Z" fill="#696969"/>
<path d="M233.678 165.187C233.678 164.247 233.678 161.158 233.678 161.158C233.678 161.158 236.421 161.158 237.707 161.158C238.712 161.158 241.736 161.158 241.736 161.158C241.736 161.158 241.736 163.966 241.736 165.187C241.736 167.412 239.932 169.215 237.707 169.215C235.482 169.215 233.678 167.412 233.678 165.187Z" fill="#696969"/>
<path d="M257.852 165.187C257.852 164.247 257.852 161.158 257.852 161.158C257.852 161.158 260.595 161.158 261.881 161.158C262.885 161.158 265.91 161.158 265.91 161.158C265.91 161.158 265.91 163.966 265.91 165.187C265.91 167.412 264.106 169.215 261.881 169.215C259.656 169.215 257.852 167.412 257.852 165.187Z" fill="#696969"/>
<path d="M0 177.273H8.05788V169.215C3.60769 169.215 0 172.823 0 177.273Z" fill="#696969"/>
<path d="M16.1157 169.215H8.05786V177.273C12.5081 177.273 16.1157 173.666 16.1157 169.215Z" fill="#696969"/>
<path d="M32.2315 169.215H24.1736V177.273H32.2315V169.215Z" fill="#696969"/>
<path d="M48.3472 169.215H40.2893V177.273H48.3472V169.215Z" fill="#696969"/>
<path d="M60.4342 169.215C61.3733 169.215 64.4632 169.215 64.4632 169.215C64.4632 169.215 64.4632 171.958 64.4632 173.244C64.4632 174.248 64.4632 177.273 64.4632 177.273C64.4632 177.273 61.6555 177.273 60.4342 177.273C58.2083 177.273 56.4053 175.469 56.4053 173.244C56.4053 171.02 58.2083 169.215 60.4342 169.215Z" fill="#696969"/>
<path d="M68.4921 177.273C67.553 177.273 64.4631 177.273 64.4631 177.273C64.4631 177.273 64.4631 174.53 64.4631 173.244C64.4631 172.24 64.4631 169.215 64.4631 169.215C64.4631 169.215 67.2715 169.215 68.4921 169.215C70.7171 169.215 72.521 171.019 72.521 173.244C72.521 175.469 70.7171 177.273 68.4921 177.273Z" fill="#696969"/>
<path d="M84.6078 169.215C85.5469 169.215 88.6367 169.215 88.6367 169.215C88.6367 169.215 88.6367 171.958 88.6367 173.244C88.6367 174.248 88.6367 177.273 88.6367 177.273C88.6367 177.273 85.8291 177.273 84.6078 177.273C82.3819 177.273 80.5789 175.469 80.5789 173.244C80.5789 171.02 82.3819 169.215 84.6078 169.215Z" fill="#696969"/>
<path d="M96.6946 169.215H88.6367V177.273H96.6946V169.215Z" fill="#696969"/>
<path d="M104.752 169.215H96.6946V177.273H104.752V169.215Z" fill="#696969"/>
<path d="M112.81 169.215H104.752V177.273C109.203 177.273 112.81 173.666 112.81 169.215Z" fill="#696969"/>
<path d="M153.1 169.215H145.042V177.273H153.1V169.215Z" fill="#696969"/>
<path d="M161.157 169.215H153.1V177.273H161.157V169.215Z" fill="#696969"/>
<path d="M169.215 169.215H161.157V177.273H169.215V169.215Z" fill="#696969"/>
<path d="M173.244 177.273C172.305 177.273 169.215 177.273 169.215 177.273C169.215 177.273 169.215 174.53 169.215 173.244C169.215 172.24 169.215 169.215 169.215 169.215C169.215 169.215 172.024 169.215 173.244 169.215C175.469 169.215 177.273 171.019 177.273 173.244C177.273 175.469 175.469 177.273 173.244 177.273Z" fill="#696969"/>
<path d="M193.389 173.244C193.389 174.183 193.389 177.273 193.389 177.273C193.389 177.273 190.646 177.273 189.36 177.273C188.356 177.273 185.331 177.273 185.331 177.273C185.331 177.273 185.331 174.465 185.331 173.244C185.331 171.019 187.135 169.215 189.36 169.215C191.585 169.215 193.389 171.019 193.389 173.244Z" fill="#696969"/>
<path d="M225.621 177.273V169.215H217.563C217.563 173.666 221.17 177.273 225.621 177.273Z" fill="#696969"/>
<path d="M229.65 177.273C228.71 177.273 225.621 177.273 225.621 177.273C225.621 177.273 225.621 174.53 225.621 173.244C225.621 172.24 225.621 169.215 225.621 169.215C225.621 169.215 228.429 169.215 229.65 169.215C231.875 169.215 233.678 171.019 233.678 173.244C233.678 175.469 231.875 177.273 229.65 177.273Z" fill="#696969"/>
<path d="M8.05788 177.273H0V185.331H8.05788V177.273Z" fill="#696969"/>
<path d="M20.1447 177.273C21.0837 177.273 24.1736 177.273 24.1736 177.273C24.1736 177.273 24.1736 180.016 24.1736 181.302C24.1736 182.306 24.1736 185.331 24.1736 185.331C24.1736 185.331 21.3659 185.331 20.1447 185.331C17.9188 185.331 16.1157 183.527 16.1157 181.302C16.1157 179.078 17.9188 177.273 20.1447 177.273Z" fill="#696969"/>
<path d="M32.2315 177.273H24.1736V185.331H32.2315V177.273Z" fill="#696969"/>
<path d="M48.3472 185.331V177.273H40.2893C40.2893 181.724 43.8969 185.331 48.3472 185.331Z" fill="#696969"/>
<path d="M52.3761 185.331C51.437 185.331 48.3472 185.331 48.3472 185.331C48.3472 185.331 48.3472 182.588 48.3472 181.302C48.3472 180.298 48.3472 177.273 48.3472 177.273C48.3472 177.273 51.1555 177.273 52.3761 177.273C54.6011 177.273 56.405 179.077 56.405 181.302C56.405 183.527 54.6011 185.331 52.3761 185.331Z" fill="#696969"/>
<path d="M116.839 177.273C119.064 177.273 120.868 179.077 120.868 181.302C120.868 183.527 119.064 185.331 116.839 185.331C114.614 185.331 112.81 183.527 112.81 181.302C112.81 179.077 114.614 177.273 116.839 177.273Z" fill="#696969"/>
<path d="M145.042 181.302C145.042 180.363 145.042 177.273 145.042 177.273C145.042 177.273 147.785 177.273 149.071 177.273C150.075 177.273 153.1 177.273 153.1 177.273C153.1 177.273 153.1 180.082 153.1 181.302C153.1 183.527 151.296 185.331 149.071 185.331C146.846 185.331 145.042 183.527 145.042 181.302Z" fill="#696969"/>
<path d="M161.157 181.302C161.157 180.363 161.157 177.273 161.157 177.273C161.157 177.273 163.9 177.273 165.186 177.273C166.191 177.273 169.215 177.273 169.215 177.273C169.215 177.273 169.215 180.082 169.215 181.302C169.215 183.527 167.411 185.331 165.186 185.331C162.961 185.331 161.157 183.527 161.157 181.302Z" fill="#696969"/>
<path d="M177.273 185.331H185.331V177.273C180.881 177.273 177.273 180.881 177.273 185.331Z" fill="#696969"/>
<path d="M193.389 177.273H185.331V185.331H193.389V177.273Z" fill="#696969"/>
<path d="M213.534 177.273C215.759 177.273 217.563 179.077 217.563 181.302C217.563 183.527 215.759 185.331 213.534 185.331C211.309 185.331 209.505 183.527 209.505 181.302C209.505 179.077 211.309 177.273 213.534 177.273Z" fill="#696969"/>
<path d="M237.707 177.273C238.646 177.273 241.736 177.273 241.736 177.273C241.736 177.273 241.736 180.016 241.736 181.302C241.736 182.306 241.736 185.331 241.736 185.331C241.736 185.331 238.929 185.331 237.707 185.331C235.482 185.331 233.678 183.527 233.678 181.302C233.678 179.078 235.482 177.273 237.707 177.273Z" fill="#696969"/>
<path d="M249.794 177.273H241.736V185.331H249.794V177.273Z" fill="#696969"/>
<path d="M257.852 177.273H249.794V185.331H257.852V177.273Z" fill="#696969"/>
<path d="M261.881 185.331C260.942 185.331 257.852 185.331 257.852 185.331C257.852 185.331 257.852 182.588 257.852 181.302C257.852 180.298 257.852 177.273 257.852 177.273C257.852 177.273 260.66 177.273 261.881 177.273C264.106 177.273 265.91 179.077 265.91 181.302C265.91 183.527 264.106 185.331 261.881 185.331Z" fill="#696969"/>
<path d="M8.05788 185.331H0V193.389H8.05788V185.331Z" fill="#696969"/>
<path d="M32.2315 193.389V185.331H24.1736C24.1736 189.781 27.7811 193.389 32.2315 193.389Z" fill="#696969"/>
<path d="M32.2314 185.331V193.389H40.2893C40.2893 188.939 36.6817 185.331 32.2314 185.331Z" fill="#696969"/>
<path d="M60.4342 185.331C61.3733 185.331 64.4632 185.331 64.4632 185.331C64.4632 185.331 64.4632 188.074 64.4632 189.36C64.4632 190.364 64.4632 193.389 64.4632 193.389C64.4632 193.389 61.6555 193.389 60.4342 193.389C58.2083 193.389 56.4053 191.584 56.4053 189.36C56.4053 187.136 58.2083 185.331 60.4342 185.331Z" fill="#696969"/>
<path d="M68.4921 193.389C67.553 193.389 64.4631 193.389 64.4631 193.389C64.4631 193.389 64.4631 190.646 64.4631 189.36C64.4631 188.356 64.4631 185.331 64.4631 185.331C64.4631 185.331 67.2715 185.331 68.4921 185.331C70.7171 185.331 72.521 187.135 72.521 189.36C72.521 191.585 70.7171 193.389 68.4921 193.389Z" fill="#696969"/>
<path d="M100.724 185.331C101.663 185.331 104.752 185.331 104.752 185.331C104.752 185.331 104.752 188.074 104.752 189.36C104.752 190.364 104.752 193.389 104.752 193.389C104.752 193.389 101.945 193.389 100.724 193.389C98.4976 193.389 96.6946 191.584 96.6946 189.36C96.6946 187.136 98.4976 185.331 100.724 185.331Z" fill="#696969"/>
<path d="M108.781 193.389C107.842 193.389 104.752 193.389 104.752 193.389C104.752 193.389 104.752 190.646 104.752 189.36C104.752 188.356 104.752 185.331 104.752 185.331C104.752 185.331 107.561 185.331 108.781 185.331C111.006 185.331 112.81 187.135 112.81 189.36C112.81 191.585 111.006 193.389 108.781 193.389Z" fill="#696969"/>
<path d="M128.926 189.36C128.926 190.299 128.926 193.389 128.926 193.389C128.926 193.389 126.183 193.389 124.897 193.389C123.893 193.389 120.868 193.389 120.868 193.389C120.868 193.389 120.868 190.581 120.868 189.36C120.868 187.135 122.672 185.331 124.897 185.331C127.122 185.331 128.926 187.135 128.926 189.36Z" fill="#696969"/>
<path d="M145.042 189.36C145.042 190.299 145.042 193.389 145.042 193.389C145.042 193.389 142.299 193.389 141.013 193.389C140.008 193.389 136.984 193.389 136.984 193.389C136.984 193.389 136.984 190.581 136.984 189.36C136.984 187.135 138.788 185.331 141.013 185.331C143.238 185.331 145.042 187.135 145.042 189.36Z" fill="#696969"/>
<path d="M185.331 193.389V185.331H177.273C177.273 189.781 180.881 193.389 185.331 193.389Z" fill="#696969"/>
<path d="M193.389 185.331H185.331V193.389H193.389V185.331Z" fill="#696969"/>
<path d="M193.389 185.331V193.389H201.447C201.447 188.939 197.839 185.331 193.389 185.331Z" fill="#696969"/>
<path d="M233.678 189.36C233.678 190.299 233.678 193.389 233.678 193.389C233.678 193.389 230.936 193.389 229.65 193.389C228.645 193.389 225.621 193.389 225.621 193.389C225.621 193.389 225.621 190.581 225.621 189.36C225.621 187.135 227.424 185.331 229.649 185.331C231.875 185.331 233.678 187.135 233.678 189.36Z" fill="#696969"/>
<path d="M241.736 189.36C241.736 188.421 241.736 185.331 241.736 185.331C241.736 185.331 244.479 185.331 245.765 185.331C246.77 185.331 249.794 185.331 249.794 185.331C249.794 185.331 249.794 188.14 249.794 189.36C249.794 191.585 247.99 193.389 245.765 193.389C243.54 193.389 241.736 191.585 241.736 189.36Z" fill="#696969"/>
<path d="M8.05788 201.447V193.389H0C1.61158e-05 197.839 3.60756 201.447 8.05788 201.447Z" fill="#696969"/>
<path d="M12.0868 201.447C11.1477 201.447 8.05786 201.447 8.05786 201.447C8.05786 201.447 8.05786 198.704 8.05786 197.418C8.05786 196.414 8.05786 193.389 8.05786 193.389C8.05786 193.389 10.8662 193.389 12.0868 193.389C14.3118 193.389 16.1157 195.193 16.1157 197.418C16.1157 199.643 14.3118 201.447 12.0868 201.447Z" fill="#696969"/>
<path d="M40.2893 201.447V193.389H32.2314C32.2315 197.839 35.839 201.447 40.2893 201.447Z" fill="#696969"/>
<path d="M48.3472 193.389H40.2893V201.447H48.3472V193.389Z" fill="#696969"/>
<path d="M52.3761 201.447C51.437 201.447 48.3472 201.447 48.3472 201.447C48.3472 201.447 48.3472 198.704 48.3472 197.418C48.3472 196.414 48.3472 193.389 48.3472 193.389C48.3472 193.389 51.1555 193.389 52.3761 193.389C54.6011 193.389 56.405 195.193 56.405 197.418C56.405 199.643 54.6011 201.447 52.3761 201.447Z" fill="#696969"/>
<path d="M76.5499 193.389C77.489 193.389 80.5789 193.389 80.5789 193.389C80.5789 193.389 80.5789 196.132 80.5789 197.418C80.5789 198.422 80.5789 201.447 80.5789 201.447C80.5789 201.447 77.7712 201.447 76.5499 201.447C74.324 201.447 72.521 199.642 72.521 197.418C72.521 195.193 74.324 193.389 76.5499 193.389Z" fill="#696969"/>
<path d="M88.6367 193.389H80.5789V201.447H88.6367V193.389Z" fill="#696969"/>
<path d="M88.6367 193.389V201.447H96.6946C96.6946 196.997 93.087 193.389 88.6367 193.389Z" fill="#696969"/>
<path d="M116.839 193.389C117.778 193.389 120.868 193.389 120.868 193.389C120.868 193.389 120.868 196.132 120.868 197.418C120.868 198.422 120.868 201.447 120.868 201.447C120.868 201.447 118.061 201.447 116.839 201.447C114.613 201.447 112.81 199.642 112.81 197.418C112.81 195.193 114.613 193.389 116.839 193.389Z" fill="#696969"/>
<path d="M128.926 193.389H120.868V201.447C125.318 201.447 128.926 197.839 128.926 193.389Z" fill="#696969"/>
<path d="M136.984 197.418C136.984 196.479 136.984 193.389 136.984 193.389C136.984 193.389 139.727 193.389 141.013 193.389C142.017 193.389 145.042 193.389 145.042 193.389C145.042 193.389 145.042 196.197 145.042 197.418C145.042 199.643 143.238 201.447 141.013 201.447C138.788 201.447 136.984 199.643 136.984 197.418Z" fill="#696969"/>
<path d="M161.157 197.418C161.157 198.357 161.157 201.447 161.157 201.447C161.157 201.447 158.415 201.447 157.129 201.447C156.124 201.447 153.1 201.447 153.1 201.447C153.1 201.447 153.1 198.639 153.1 197.418C153.1 195.193 154.903 193.389 157.128 193.389C159.354 193.389 161.157 195.193 161.157 197.418Z" fill="#696969"/>
<path d="M193.389 201.447V193.389H185.331C185.331 197.839 188.939 201.447 193.389 201.447Z" fill="#696969"/>
<path d="M201.447 193.389H193.389V201.447H201.447V193.389Z" fill="#696969"/>
<path d="M209.505 193.389H201.447V201.447H209.505V193.389Z" fill="#696969"/>
<path d="M217.563 193.389H209.505V201.447H217.563V193.389Z" fill="#696969"/>
<path d="M225.621 193.389H217.563V201.447H225.621V193.389Z" fill="#696969"/>
<path d="M233.678 193.389H225.621V201.447H233.678V193.389Z" fill="#696969"/>
<path d="M237.707 201.447C236.768 201.447 233.678 201.447 233.678 201.447C233.678 201.447 233.678 198.704 233.678 197.418C233.678 196.414 233.678 193.389 233.678 193.389C233.678 193.389 236.487 193.389 237.707 193.389C239.932 193.389 241.736 195.193 241.736 197.418C241.736 199.643 239.932 201.447 237.707 201.447Z" fill="#696969"/>
<path d="M261.881 193.389C264.106 193.389 265.91 195.193 265.91 197.418C265.91 199.643 264.106 201.447 261.881 201.447C259.656 201.447 257.852 199.643 257.852 197.418C257.852 195.193 259.656 193.389 261.881 193.389Z" fill="#696969"/>
<path d="M72.521 205.476C72.521 206.415 72.521 209.505 72.521 209.505C72.521 209.505 69.7782 209.505 68.4921 209.505C67.4877 209.505 64.4631 209.505 64.4631 209.505C64.4631 209.505 64.4631 206.697 64.4631 205.476C64.4632 203.251 66.267 201.447 68.492 201.447C70.7171 201.447 72.521 203.251 72.521 205.476Z" fill="#696969"/>
<path d="M88.6367 209.505V201.447H80.5789C80.5789 205.897 84.1864 209.505 88.6367 209.505Z" fill="#696969"/>
<path d="M96.6946 201.447H88.6367V209.505H96.6946V201.447Z" fill="#696969"/>
<path d="M136.984 205.476C136.984 206.415 136.984 209.505 136.984 209.505C136.984 209.505 134.241 209.505 132.955 209.505C131.951 209.505 128.926 209.505 128.926 209.505C128.926 209.505 128.926 206.697 128.926 205.476C128.926 203.251 130.73 201.447 132.955 201.447C135.18 201.447 136.984 203.251 136.984 205.476Z" fill="#696969"/>
<path d="M149.071 201.447C150.01 201.447 153.1 201.447 153.1 201.447C153.1 201.447 153.1 204.19 153.1 205.476C153.1 206.48 153.1 209.505 153.1 209.505C153.1 209.505 150.292 209.505 149.071 209.505C146.845 209.505 145.042 207.7 145.042 205.476C145.042 203.251 146.845 201.447 149.071 201.447Z" fill="#696969"/>
<path d="M161.157 201.447H153.1V209.505H161.157V201.447Z" fill="#696969"/>
<path d="M169.215 201.447H161.157V209.505H169.215V201.447Z" fill="#696969"/>
<path d="M169.215 201.447V209.505H177.273C177.273 205.055 173.666 201.447 169.215 201.447Z" fill="#696969"/>
<path d="M201.447 201.447H193.389V209.505H201.447V201.447Z" fill="#696969"/>
<path d="M233.678 201.447H225.621V209.505H233.678V201.447Z" fill="#696969"/>
<path d="M245.765 201.447C247.99 201.447 249.794 203.251 249.794 205.476C249.794 207.701 247.99 209.505 245.765 209.505C243.54 209.505 241.736 207.701 241.736 205.476C241.736 203.251 243.54 201.447 245.765 201.447Z" fill="#696969"/>
<path d="M64.4631 213.534C64.4631 212.595 64.4631 209.505 64.4631 209.505C64.4631 209.505 67.2061 209.505 68.4921 209.505C69.4965 209.505 72.521 209.505 72.521 209.505C72.521 209.505 72.521 212.313 72.521 213.534C72.521 215.759 70.7171 217.563 68.4921 217.563C66.267 217.563 64.4631 215.759 64.4631 213.534Z" fill="#696969"/>
<path d="M96.6946 209.505H88.6367V217.563H96.6946V209.505Z" fill="#696969"/>
<path d="M112.81 213.534C112.81 214.473 112.81 217.563 112.81 217.563C112.81 217.563 110.068 217.563 108.781 217.563C107.777 217.563 104.752 217.563 104.752 217.563C104.752 217.563 104.752 214.755 104.752 213.534C104.753 211.309 106.556 209.505 108.781 209.505C111.006 209.505 112.81 211.309 112.81 213.534Z" fill="#696969"/>
<path d="M136.984 209.505H128.926V217.563H136.984V209.505Z" fill="#696969"/>
<path d="M153.1 213.534C153.1 212.595 153.1 209.505 153.1 209.505C153.1 209.505 155.843 209.505 157.129 209.505C158.133 209.505 161.157 209.505 161.157 209.505C161.157 209.505 161.157 212.313 161.157 213.534C161.157 215.759 159.354 217.563 157.129 217.563C154.903 217.563 153.1 215.759 153.1 213.534Z" fill="#696969"/>
<path d="M177.273 217.563V209.505H169.215C169.215 213.955 172.823 217.563 177.273 217.563Z" fill="#696969"/>
<path d="M185.331 209.505H177.273V217.563H185.331V209.505Z" fill="#696969"/>
<path d="M193.389 209.505H185.331V217.563H193.389V209.505Z" fill="#696969"/>
<path d="M201.447 209.505H193.389V217.563H201.447V209.505Z" fill="#696969"/>
<path d="M213.534 209.505C215.759 209.505 217.563 211.309 217.563 213.534C217.563 215.759 215.759 217.563 213.534 217.563C211.309 217.563 209.505 215.759 209.505 213.534C209.505 211.309 211.309 209.505 213.534 209.505Z" fill="#696969"/>
<path d="M233.678 209.505H225.621V217.563H233.678V209.505Z" fill="#696969"/>
<path d="M237.707 217.563C236.768 217.563 233.678 217.563 233.678 217.563C233.678 217.563 233.678 214.82 233.678 213.534C233.678 212.529 233.678 209.505 233.678 209.505C233.678 209.505 236.487 209.505 237.707 209.505C239.932 209.505 241.736 211.309 241.736 213.534C241.736 215.759 239.932 217.563 237.707 217.563Z" fill="#696969"/>
<path d="M96.6946 217.563H88.6367V225.621H96.6946V217.563Z" fill="#696969"/>
<path d="M104.752 217.563H96.6946V225.621H104.752V217.563Z" fill="#696969"/>
<path d="M112.81 217.563H104.752V225.621H112.81V217.563Z" fill="#696969"/>
<path d="M124.897 217.563C125.836 217.563 128.926 217.563 128.926 217.563C128.926 217.563 128.926 220.305 128.926 221.592C128.926 222.596 128.926 225.621 128.926 225.621C128.926 225.621 126.118 225.621 124.897 225.621C122.671 225.621 120.868 223.816 120.868 221.592C120.868 219.367 122.671 217.563 124.897 217.563Z" fill="#696969"/>
<path d="M136.984 217.563H128.926V225.621H136.984V217.563Z" fill="#696969"/>
<path d="M136.984 217.563V225.621H145.042C145.042 221.17 141.434 217.563 136.984 217.563Z" fill="#696969"/>
<path d="M185.331 225.621V217.563H177.273C177.273 222.013 180.881 225.621 185.331 225.621Z" fill="#696969"/>
<path d="M193.389 217.563H185.331V225.621H193.389V217.563Z" fill="#696969"/>
<path d="M201.447 217.563H193.389V225.621H201.447V217.563Z" fill="#696969"/>
<path d="M233.678 217.563H225.621V225.621H233.678V217.563Z" fill="#696969"/>
<path d="M245.765 217.563C246.704 217.563 249.794 217.563 249.794 217.563C249.794 217.563 249.794 220.305 249.794 221.592C249.794 222.596 249.794 225.621 249.794 225.621C249.794 225.621 246.987 225.621 245.765 225.621C243.539 225.621 241.736 223.816 241.736 221.592C241.736 219.367 243.539 217.563 245.765 217.563Z" fill="#696969"/>
<path d="M249.794 217.563V225.621H257.852C257.852 221.17 254.244 217.563 249.794 217.563Z" fill="#696969"/>
<path d="M64.4631 233.678H72.521V225.621C68.0708 225.621 64.4631 229.228 64.4631 233.678Z" fill="#696969"/>
<path d="M72.521 225.621V233.678H80.5789C80.5789 229.228 76.9712 225.621 72.521 225.621Z" fill="#696969"/>
<path d="M96.6946 233.678V225.621H88.6367C88.6367 230.071 92.2443 233.678 96.6946 233.678Z" fill="#696969"/>
<path d="M104.752 225.621H96.6946V233.678H104.752V225.621Z" fill="#696969"/>
<path d="M112.81 225.621H104.752V233.678C109.203 233.678 112.81 230.071 112.81 225.621Z" fill="#696969"/>
<path d="M136.984 233.678V225.621H128.926C128.926 230.071 132.534 233.678 136.984 233.678Z" fill="#696969"/>
<path d="M145.042 225.621H136.984V233.678H145.042V225.621Z" fill="#696969"/>
<path d="M173.244 225.621C175.469 225.621 177.273 227.424 177.273 229.65C177.273 231.875 175.469 233.678 173.244 233.678C171.019 233.678 169.215 231.875 169.215 229.65C169.215 227.424 171.019 225.621 173.244 225.621Z" fill="#696969"/>
<path d="M193.389 233.678V225.621H185.331C185.331 230.071 188.939 233.678 193.389 233.678Z" fill="#696969"/>
<path d="M201.447 225.621H193.389V233.678H201.447V225.621Z" fill="#696969"/>
<path d="M209.505 225.621H201.447V233.678H209.505V225.621Z" fill="#696969"/>
<path d="M217.563 225.621H209.505V233.678H217.563V225.621Z" fill="#696969"/>
<path d="M225.621 225.621H217.563V233.678H225.621V225.621Z" fill="#696969"/>
<path d="M233.678 225.621H225.621V233.678H233.678V225.621Z" fill="#696969"/>
<path d="M237.707 233.678C236.768 233.678 233.678 233.678 233.678 233.678C233.678 233.678 233.678 230.935 233.678 229.65C233.678 228.645 233.678 225.621 233.678 225.621C233.678 225.621 236.487 225.621 237.707 225.621C239.932 225.621 241.736 227.424 241.736 229.65C241.736 231.875 239.932 233.678 237.707 233.678Z" fill="#696969"/>
<path d="M249.794 229.65C249.794 228.71 249.794 225.621 249.794 225.621C249.794 225.621 252.537 225.621 253.823 225.621C254.828 225.621 257.852 225.621 257.852 225.621C257.852 225.621 257.852 228.429 257.852 229.65C257.852 231.875 256.048 233.678 253.823 233.678C251.598 233.678 249.794 231.875 249.794 229.65Z" fill="#696969"/>
<path d="M72.521 241.736V233.678H64.4631C64.4632 238.129 68.0707 241.736 72.521 241.736Z" fill="#696969"/>
<path d="M80.5789 233.678H72.521V241.736C76.9712 241.736 80.5789 238.129 80.5789 233.678Z" fill="#696969"/>
<path d="M112.81 241.736H120.868V233.678C116.418 233.678 112.81 237.286 112.81 241.736Z" fill="#696969"/>
<path d="M124.897 241.736C123.958 241.736 120.868 241.736 120.868 241.736C120.868 241.736 120.868 238.993 120.868 237.707C120.868 236.703 120.868 233.678 120.868 233.678C120.868 233.678 123.677 233.678 124.897 233.678C127.122 233.678 128.926 235.482 128.926 237.707C128.926 239.932 127.122 241.736 124.897 241.736Z" fill="#696969"/>
<path d="M136.984 237.707C136.984 236.768 136.984 233.678 136.984 233.678C136.984 233.678 139.727 233.678 141.013 233.678C142.017 233.678 145.042 233.678 145.042 233.678C145.042 233.678 145.042 236.487 145.042 237.707C145.042 239.932 143.238 241.736 141.013 241.736C138.788 241.736 136.984 239.932 136.984 237.707Z" fill="#696969"/>
<path d="M169.215 237.707C169.215 238.646 169.215 241.736 169.215 241.736C169.215 241.736 166.473 241.736 165.186 241.736C164.182 241.736 161.157 241.736 161.157 241.736C161.157 241.736 161.157 238.928 161.157 237.707C161.158 235.482 162.961 233.678 165.186 233.678C167.411 233.678 169.215 235.482 169.215 237.707Z" fill="#696969"/>
<path d="M181.302 233.678C183.528 233.678 185.331 235.482 185.331 237.707C185.331 239.933 183.528 241.736 181.302 241.736C179.077 241.736 177.273 239.933 177.273 237.707C177.273 235.482 179.077 233.678 181.302 233.678Z" fill="#696969"/>
<path d="M201.447 233.678H193.389V241.736H201.447V233.678Z" fill="#696969"/>
<path d="M209.505 233.678H201.447V241.736C205.897 241.736 209.505 238.129 209.505 233.678Z" fill="#696969"/>
<path d="M217.563 237.707C217.563 236.768 217.563 233.678 217.563 233.678C217.563 233.678 220.306 233.678 221.592 233.678C222.596 233.678 225.621 233.678 225.621 233.678C225.621 233.678 225.621 236.487 225.621 237.707C225.621 239.932 223.817 241.736 221.592 241.736C219.367 241.736 217.563 239.932 217.563 237.707Z" fill="#696969"/>
<path d="M265.91 237.707C265.91 238.646 265.91 241.736 265.91 241.736C265.91 241.736 263.167 241.736 261.881 241.736C260.877 241.736 257.852 241.736 257.852 241.736C257.852 241.736 257.852 238.928 257.852 237.707C257.852 235.482 259.656 233.678 261.881 233.678C264.106 233.678 265.91 235.482 265.91 237.707Z" fill="#696969"/>
<path d="M96.6946 245.765C96.6946 246.704 96.6946 249.794 96.6946 249.794C96.6946 249.794 93.9518 249.794 92.6657 249.794C91.6613 249.794 88.6367 249.794 88.6367 249.794C88.6367 249.794 88.6367 246.986 88.6367 245.765C88.6368 243.54 90.4405 241.736 92.6656 241.736C94.8907 241.736 96.6946 243.54 96.6946 245.765Z" fill="#696969"/>
<path d="M108.781 241.736C109.72 241.736 112.81 241.736 112.81 241.736C112.81 241.736 112.81 244.479 112.81 245.765C112.81 246.769 112.81 249.794 112.81 249.794C112.81 249.794 110.003 249.794 108.781 249.794C106.555 249.794 104.752 247.99 104.752 245.765C104.752 243.541 106.555 241.736 108.781 241.736Z" fill="#696969"/>
<path d="M120.868 241.736H112.81V249.794C117.261 249.794 120.868 246.187 120.868 241.736Z" fill="#696969"/>
<path d="M136.984 245.765C136.984 246.704 136.984 249.794 136.984 249.794C136.984 249.794 134.241 249.794 132.955 249.794C131.951 249.794 128.926 249.794 128.926 249.794C128.926 249.794 128.926 246.986 128.926 245.765C128.926 243.54 130.73 241.736 132.955 241.736C135.18 241.736 136.984 243.54 136.984 245.765Z" fill="#696969"/>
<path d="M169.215 241.736H161.157V249.794H169.215V241.736Z" fill="#696969"/>
<path d="M189.36 241.736C190.299 241.736 193.389 241.736 193.389 241.736C193.389 241.736 193.389 244.479 193.389 245.765C193.389 246.769 193.389 249.794 193.389 249.794C193.389 249.794 190.582 249.794 189.36 249.794C187.134 249.794 185.331 247.99 185.331 245.765C185.331 243.541 187.134 241.736 189.36 241.736Z" fill="#696969"/>
<path d="M201.447 241.736H193.389V249.794C197.839 249.794 201.447 246.187 201.447 241.736Z" fill="#696969"/>
<path d="M229.65 241.736C230.589 241.736 233.678 241.736 233.678 241.736C233.678 241.736 233.678 244.479 233.678 245.765C233.678 246.769 233.678 249.794 233.678 249.794C233.678 249.794 230.871 249.794 229.65 249.794C227.424 249.794 225.621 247.99 225.621 245.765C225.621 243.541 227.424 241.736 229.65 241.736Z" fill="#696969"/>
<path d="M233.678 241.736V249.794H241.736C241.736 245.344 238.129 241.736 233.678 241.736Z" fill="#696969"/>
<path d="M249.794 249.794H257.852V241.736C253.402 241.736 249.794 245.344 249.794 249.794Z" fill="#696969"/>
<path d="M265.91 241.736H257.852V249.794H265.91V241.736Z" fill="#696969"/>
<path d="M76.5499 249.794C78.7752 249.794 80.5789 251.598 80.5789 253.823C80.5789 256.048 78.7752 257.852 76.5499 257.852C74.3248 257.852 72.521 256.048 72.521 253.823C72.521 251.598 74.3248 249.794 76.5499 249.794Z" fill="#696969"/>
<path d="M88.6367 253.823C88.6367 252.884 88.6367 249.794 88.6367 249.794C88.6367 249.794 91.3796 249.794 92.6657 249.794C93.6701 249.794 96.6946 249.794 96.6946 249.794C96.6946 249.794 96.6946 252.603 96.6946 253.823C96.6946 256.048 94.8907 257.852 92.6657 257.852C90.4405 257.852 88.6367 256.048 88.6367 253.823Z" fill="#696969"/>
<path d="M124.897 249.794C125.836 249.794 128.926 249.794 128.926 249.794C128.926 249.794 128.926 252.537 128.926 253.823C128.926 254.827 128.926 257.852 128.926 257.852C128.926 257.852 126.118 257.852 124.897 257.852C122.671 257.852 120.868 256.048 120.868 253.823C120.868 251.599 122.671 249.794 124.897 249.794Z" fill="#696969"/>
<path d="M136.984 249.794H128.926V257.852H136.984V249.794Z" fill="#696969"/>
<path d="M153.1 253.823C153.1 254.762 153.1 257.852 153.1 257.852C153.1 257.852 150.357 257.852 149.071 257.852C148.066 257.852 145.042 257.852 145.042 257.852C145.042 257.852 145.042 255.044 145.042 253.823C145.042 251.598 146.846 249.794 149.071 249.794C151.296 249.794 153.1 251.598 153.1 253.823Z" fill="#696969"/>
<path d="M161.157 253.823C161.157 252.884 161.157 249.794 161.157 249.794C161.157 249.794 163.9 249.794 165.186 249.794C166.191 249.794 169.215 249.794 169.215 249.794C169.215 249.794 169.215 252.603 169.215 253.823C169.215 256.048 167.411 257.852 165.186 257.852C162.961 257.852 161.157 256.048 161.157 253.823Z" fill="#696969"/>
<path d="M213.534 249.794C215.759 249.794 217.563 251.598 217.563 253.823C217.563 256.048 215.759 257.852 213.534 257.852C211.309 257.852 209.505 256.048 209.505 253.823C209.505 251.598 211.309 249.794 213.534 249.794Z" fill="#696969"/>
<path d="M241.736 257.852V249.794H233.678C233.678 254.244 237.286 257.852 241.736 257.852Z" fill="#696969"/>
<path d="M249.794 249.794H241.736V257.852H249.794V249.794Z" fill="#696969"/>
<path d="M257.852 249.794H249.794V257.852H257.852V249.794Z" fill="#696969"/>
<path d="M265.91 249.794H257.852V257.852C262.302 257.852 265.91 254.244 265.91 249.794Z" fill="#696969"/>
<path d="M84.6078 257.852C86.833 257.852 88.6367 259.656 88.6367 261.881C88.6367 264.106 86.833 265.91 84.6078 265.91C82.3827 265.91 80.5789 264.106 80.5789 261.881C80.5789 259.656 82.3827 257.852 84.6078 257.852Z" fill="#696969"/>
<path d="M116.839 257.852C119.064 257.852 120.868 259.656 120.868 261.881C120.868 264.106 119.064 265.91 116.839 265.91C114.614 265.91 112.81 264.106 112.81 261.881C112.81 259.656 114.614 257.852 116.839 257.852Z" fill="#696969"/>
<path d="M128.926 261.881C128.926 260.942 128.926 257.852 128.926 257.852C128.926 257.852 131.669 257.852 132.955 257.852C133.959 257.852 136.984 257.852 136.984 257.852C136.984 257.852 136.984 260.66 136.984 261.881C136.984 264.106 135.18 265.91 132.955 265.91C130.73 265.91 128.926 264.106 128.926 261.881Z" fill="#696969"/>
<path d="M153.1 265.91V257.852H145.042C145.042 262.302 148.649 265.91 153.1 265.91Z" fill="#696969"/>
<path d="M157.129 265.91C156.189 265.91 153.1 265.91 153.1 265.91C153.1 265.91 153.1 263.167 153.1 261.881C153.1 260.877 153.1 257.852 153.1 257.852C153.1 257.852 155.908 257.852 157.129 257.852C159.354 257.852 161.157 259.656 161.157 261.881C161.157 264.106 159.354 265.91 157.129 265.91Z" fill="#696969"/>
<path d="M189.36 257.852C190.299 257.852 193.389 257.852 193.389 257.852C193.389 257.852 193.389 260.595 193.389 261.881C193.389 262.885 193.389 265.91 193.389 265.91C193.389 265.91 190.582 265.91 189.36 265.91C187.134 265.91 185.331 264.105 185.331 261.881C185.331 259.656 187.134 257.852 189.36 257.852Z" fill="#696969"/>
<path d="M197.418 265.91C196.479 265.91 193.389 265.91 193.389 265.91C193.389 265.91 193.389 263.167 193.389 261.881C193.389 260.877 193.389 257.852 193.389 257.852C193.389 257.852 196.198 257.852 197.418 257.852C199.643 257.852 201.447 259.656 201.447 261.881C201.447 264.106 199.643 265.91 197.418 265.91Z" fill="#696969"/>
<path d="M229.65 257.852C231.875 257.852 233.678 259.656 233.678 261.881C233.678 264.106 231.875 265.91 229.65 265.91C227.424 265.91 225.621 264.106 225.621 261.881C225.621 259.656 227.424 257.852 229.65 257.852Z" fill="#696969"/>
<path d="M37.1479 0.0045166H19.2573C10.5382 0.0045166 3.15136 5.76518 0.789672 13.6388C0.545438 14.4533 0.354788 15.2903 0.222236 16.146C0.0761469 17.0902 0 18.057 0 19.0413V37.3566C0 47.8586 8.64127 56.3989 19.2573 56.3989L28.2026 56.4006L37.1479 56.3984C47.7633 56.3984 56.4052 47.8581 56.4052 37.356V19.0413C56.4052 8.54426 47.7639 0.0045166 37.1479 0.0045166ZM47.9444 37.3566C47.9444 43.1911 43.1014 47.9382 37.1456 47.9382L28.2026 47.9399L19.2595 47.9376C13.3037 47.9376 8.46077 43.1906 8.46077 37.3566V19.0413C8.46077 17.2188 8.93345 15.503 9.76542 14.0037C10.5664 12.5614 11.6996 11.3211 13.064 10.3819C14.8182 9.1743 16.9543 8.46529 19.2567 8.46529H37.1479C43.1014 8.46529 47.9444 13.2095 47.9444 19.0413V37.3566Z" fill="#696969"/>
<path d="M246.653 0.0045166H228.762C220.043 0.0045166 212.656 5.76518 210.295 13.6388C210.05 14.4533 209.86 15.2903 209.727 16.146C209.581 17.0902 209.505 18.057 209.505 19.0413V37.3566C209.505 47.8586 218.146 56.3989 228.762 56.3989L237.707 56.4006L246.653 56.3984C257.268 56.3984 265.91 47.8581 265.91 37.356V19.0413C265.91 8.54426 257.269 0.0045166 246.653 0.0045166ZM257.449 37.3566C257.449 43.1911 252.606 47.9382 246.65 47.9382L237.707 47.9399L228.764 47.9376C222.809 47.9376 217.966 43.1906 217.966 37.3566V19.0413C217.966 17.2188 218.438 15.503 219.27 14.0037C220.071 12.5614 221.204 11.3211 222.569 10.3819C224.323 9.1743 226.459 8.46529 228.762 8.46529H246.653C252.606 8.46529 257.449 13.2095 257.449 19.0413V37.3566Z" fill="#696969"/>
<path d="M37.1479 209.509H19.2573C10.5382 209.509 3.15136 215.27 0.789672 223.144C0.545438 223.958 0.354788 224.795 0.222236 225.651C0.0761469 226.595 0 227.562 0 228.546V246.861C0 257.363 8.64127 265.904 19.2573 265.904L28.2026 265.905L37.1479 265.903C47.7633 265.903 56.4052 257.363 56.4052 246.861V228.546C56.4052 218.049 47.7639 209.509 37.1479 209.509ZM47.9444 246.861C47.9444 252.696 43.1014 257.443 37.1456 257.443L28.2026 257.445L19.2595 257.442C13.3037 257.442 8.46077 252.695 8.46077 246.861V228.546C8.46077 226.724 8.93345 225.008 9.76542 223.509C10.5664 222.066 11.6996 220.826 13.064 219.887C14.8182 218.679 16.9543 217.97 19.2567 217.97H37.1479C43.1014 217.97 47.9444 222.714 47.9444 228.546V246.861Z" fill="#696969"/>
<path d="M22.7274 40.2894C19.0796 40.2894 16.1123 37.3808 16.1123 33.8089V22.5928C16.1123 21.477 16.4024 20.4269 16.9103 19.508C17.4008 18.6238 18.095 17.8637 18.9312 17.2904C20.0052 16.5511 21.3145 16.1158 22.7238 16.1158H33.681C37.3254 16.1158 40.2927 19.0209 40.2927 22.5926V33.8087C40.2927 37.3803 37.3256 40.2891 33.681 40.2891H28.2025L22.7274 40.2894Z" fill="#696969"/>
<path d="M232.232 40.2894C228.585 40.2894 225.617 37.3808 225.617 33.8089V22.5928C225.617 21.477 225.907 20.4269 226.415 19.508C226.906 18.6238 227.6 17.8637 228.436 17.2904C229.51 16.5511 230.819 16.1158 232.229 16.1158H243.186C246.83 16.1158 249.798 19.0209 249.798 22.5926V33.8087C249.798 37.3803 246.831 40.2891 243.186 40.2891H237.707L232.232 40.2894Z" fill="#696969"/>
<path d="M22.7274 249.794C19.0796 249.794 16.1123 246.886 16.1123 243.314V232.098C16.1123 230.982 16.4024 229.932 16.9103 229.013C17.4008 228.129 18.095 227.369 18.9312 226.795C20.0052 226.056 21.3145 225.621 22.7238 225.621H33.681C37.3254 225.621 40.2927 228.526 40.2927 232.097V243.314C40.2927 246.885 37.3256 249.794 33.681 249.794H28.2025L22.7274 249.794Z" fill="#696969"/>
<rect x="51.6592" y="100.943" width="166" height="73" rx="36.5" fill="white"/>
<path d="M106.666 139.114C106.693 137.094 107.23 135.114 108.23 133.358C109.23 131.602 110.659 130.126 112.384 129.068C111.288 127.508 109.842 126.223 108.161 125.317C106.48 124.411 104.611 123.908 102.701 123.848C98.6266 123.422 94.677 126.279 92.6009 126.279C90.4847 126.279 87.2882 123.891 83.8462 123.961C81.6198 124.033 79.45 124.679 77.5482 125.835C75.6464 126.992 74.0775 128.62 72.9943 130.561C68.3021 138.662 71.802 150.568 76.2967 157.116C78.5455 160.322 81.1737 163.904 84.6126 163.777C87.9778 163.638 89.2347 161.637 93.2968 161.637C97.3212 161.637 98.5003 163.777 102.009 163.696C105.62 163.638 107.895 160.476 110.065 157.239C111.681 154.954 112.924 152.429 113.749 149.757C111.651 148.872 109.861 147.391 108.601 145.498C107.342 143.606 106.669 141.385 106.666 139.114V139.114Z" fill="#4D4D4D"/>
<path d="M100.046 119.54C102.015 117.183 102.985 114.154 102.75 111.095C99.7418 111.41 96.9632 112.844 94.9677 115.11C93.9921 116.218 93.2448 117.506 92.7687 118.901C92.2926 120.297 92.0969 121.772 92.1929 123.243C93.6975 123.258 95.1859 122.933 96.5462 122.292C97.9064 121.65 99.103 120.71 100.046 119.54Z" fill="#4D4D4D"/>
<path d="M156.5 113.957C155.879 114.691 155.562 115.635 155.614 116.596V158.285C155.55 159.247 155.869 160.195 156.5 160.924L156.632 161.075L179.983 137.723V137.158L156.632 113.825L156.5 113.957Z" fill="#4D4D4D" stroke="white" stroke-width="1.97849"/>
<path d="M187.716 145.499L179.989 137.715V137.15L187.716 129.366L187.886 129.479L197.14 134.719C199.778 136.208 199.778 138.658 197.14 140.165L187.923 145.405L187.716 145.499Z" fill="#4D4D4D" stroke="white" stroke-width="1.97849"/>
<path d="M187.945 145.384L179.991 137.43L156.508 160.914C157.04 161.388 157.722 161.661 158.435 161.685C159.147 161.709 159.846 161.483 160.409 161.046L187.945 145.384" fill="#4D4D4D"/>
<path d="M187.945 145.384L179.991 137.43L156.508 160.914C157.04 161.388 157.722 161.661 158.435 161.685C159.147 161.709 159.846 161.483 160.409 161.046L187.945 145.384" stroke="white" stroke-width="1.97849"/>
<path d="M187.945 129.481L160.409 113.838C159.849 113.395 159.151 113.164 158.438 113.184C157.724 113.205 157.041 113.477 156.508 113.951L179.991 137.435L187.945 129.481Z" fill="#4D4D4D" stroke="white" stroke-width="1.97849"/>
<path opacity="0.25" d="M160.403 114.103L197.135 134.985C197.637 135.209 198.079 135.547 198.426 135.972C198.773 136.398 199.015 136.899 199.133 137.435C199.075 136.845 198.859 136.282 198.507 135.804C198.156 135.326 197.682 134.952 197.135 134.721L160.403 113.839C157.783 112.331 155.615 113.575 155.615 116.591V116.873C155.672 113.858 157.783 112.614 160.403 114.103Z" fill="#4D4D4D"/>
</svg>
