<svg width="10" height="6" viewBox="0 0 10 6" fill="none" xmlns="http://www.w3.org/2000/svg">
<path d="M4.94182 5.83931C5.13165 5.83726 5.29521 5.76638 5.4399 5.61614L9.69949 1.26821C9.82152 1.1416 9.88281 0.990658 9.88281 0.808339C9.88281 0.449282 9.60079 0.160675 9.23816 0.160675C9.06143 0.160675 8.89786 0.232575 8.77081 0.357061L4.94287 4.28238L1.11286 0.357061C0.986814 0.23358 0.826852 0.160675 0.6445 0.160675C0.282891 0.160675 -0.000116348 0.449282 -0.000116348 0.808339C-0.000116348 0.988648 0.0611448 1.1416 0.187762 1.26821L4.44379 5.61614C4.59308 5.76738 4.75304 5.83931 4.94182 5.83931Z" fill="#6061F0"/>
</svg>
