<svg width="1936" height="483" viewBox="0 0 1936 483" fill="none" xmlns="http://www.w3.org/2000/svg">
<path d="M521.31 353.195C692.352 262.072 707.419 182.597 675.291 14.4155C673.321 4.10252 661.042 -0.361993 652.876 6.23745C540.319 97.1998 484.888 155.313 413.619 257.274C408.198 265.03 412.511 275.632 418.979 282.54C429.791 294.086 428.846 311.105 442.535 325.156C461.94 340.182 486.043 339.886 502.166 350.715C507.832 354.521 515.286 356.404 521.31 353.195Z" fill="#5C6AF1"/>
<path d="M282.985 408.029C89.7147 393.697 43.8509 327.066 5.36238 160.224C3.00226 149.994 12.4341 140.953 22.5692 143.695C162.265 181.487 236.437 212.282 342.797 276.803C350.887 281.711 351.22 293.151 348.091 302.082C342.86 317.01 350.594 332.2 343.741 350.581C332.052 372.161 309.879 381.618 299.499 398.034C295.851 403.802 289.792 408.534 282.985 408.029Z" fill="#5C6AF1"/>
<path d="M326.549 209.711C330.922 216.34 338.424 227.279 344.331 234.817C348.388 239.993 354.506 238.823 357.738 233.095L363.35 223.15C365.706 218.976 365.683 213.85 362.865 209.972C358.59 204.092 351.555 195.746 343.757 191.904C332.696 186.455 316.844 188.466 306.147 190.869C302.822 191.616 302.931 196.24 306.157 197.337C313.691 199.898 322.783 204.002 326.549 209.711Z" fill="#5C6AF1"/>
<path d="M360.637 192.94C357.706 198.382 353.143 207.227 349.931 214.36C347.19 220.447 351.158 224.987 357.821 224.581L367.161 224.011C371.554 223.743 375.57 221.356 377.45 217.377C380.073 211.828 383.226 203.536 382.656 196.673C381.855 187.02 373.461 177.445 366.708 171.213C364.26 168.954 360.547 171.572 361.243 174.83C362.536 180.879 363.205 188.169 360.637 192.94Z" fill="#5C6AF1"/>
<path d="M273.768 259.016C299.848 228.586 326.583 221.082 366.051 214.128C400.896 207.988 423.597 207.317 456.425 220.515C501.053 238.457 535.627 319.598 540.216 330.785C540.575 331.662 541.016 332.478 541.559 333.255C558.065 356.861 569.174 362.165 583.416 363.336C588.266 363.734 590.641 369.63 587.091 372.96L572.232 386.902C570.252 388.76 572.462 391.942 574.894 390.735C577.485 389.449 579.349 392.513 576.937 394.108C542.838 416.646 477.573 456.529 426.041 468.564C362.875 483.317 269.35 472.556 228.765 466.663C225 466.116 225.035 461.687 228.837 461.568C232.77 461.445 234.013 455.444 230.281 454.196L212.061 448.104C207.034 446.423 206.629 439.475 211.326 437.017C231.718 426.345 243.437 415.259 248.575 383.368C248.727 382.42 248.766 381.49 248.704 380.532C247.984 369.342 244.284 293.416 273.768 259.016Z" fill="#5C6AF1"/>
<path d="M450.232 397.43C425.587 404.456 391.617 411.32 355.777 417.086C348.948 418.184 347.447 426.766 353.759 429.596C370.022 436.889 393.891 445.175 412.063 441.309C429.182 437.666 446.371 422.147 458.323 408.992C463.273 403.544 457.311 395.412 450.232 397.43Z" fill="white"/>
<path d="M765.174 420.342C755.267 420.342 747.235 412.311 747.235 402.404V77.5304C747.235 67.6232 755.267 59.5918 765.174 59.5918H901.931C927.714 59.5918 949.895 62.5848 968.473 68.5709C987.052 74.557 1001.46 84.2404 1011.7 97.6211C1022.31 110.65 1027.62 128.256 1027.62 150.44C1027.62 165.581 1025.92 178.433 1022.5 188.997C1019.47 199.209 1014.54 208.012 1007.72 215.406C1001.27 222.449 992.74 228.963 982.123 234.949C993.498 238.823 1003.36 244.104 1011.7 250.795C1020.42 257.133 1027.05 265.76 1031.6 276.676C1036.15 287.24 1038.43 301.325 1038.43 318.931C1038.43 338.297 1035.21 354.495 1028.76 367.524C1022.31 380.552 1013.02 390.94 1000.89 398.687C989.138 406.433 975.298 412.067 959.374 415.589C943.449 418.758 926.008 420.342 907.05 420.342H765.174ZM825.721 348.529C825.721 358.436 833.752 366.467 843.66 366.467H901.363C914.633 366.467 925.629 365.059 934.349 362.242C943.449 359.073 950.274 353.615 954.824 345.868C959.753 338.121 962.217 327.382 962.217 313.649C962.217 303.085 960.322 294.458 956.53 287.768C952.738 281.077 947.809 276.148 941.743 272.979C935.676 269.457 928.852 266.992 921.268 265.584C914.064 264.175 906.86 263.471 899.656 263.471H843.66C833.752 263.471 825.721 271.503 825.721 281.41V348.529ZM825.721 193.77C825.721 203.678 833.752 211.709 843.66 211.709H899.088C918.425 211.709 932.264 207.484 940.605 199.033C949.326 190.582 953.686 177.729 953.686 160.475C953.686 143.925 948.947 131.953 939.468 124.559C930.368 117.164 915.96 113.467 896.244 113.467H843.66C833.752 113.467 825.721 121.498 825.721 131.405V193.77Z" fill="url(#paint0_linear_28721_34016)"/>
<path d="M1092.66 420.342C1082.75 420.342 1074.72 412.311 1074.72 402.404V174.657C1074.72 164.749 1082.75 156.718 1092.66 156.718H1132.68C1142.59 156.718 1150.62 164.749 1150.62 174.657V402.404C1150.62 412.311 1142.59 420.342 1132.68 420.342H1092.66ZM1092.66 114.706C1082.75 114.706 1074.72 106.675 1074.72 96.7675V72.7781C1074.72 62.8708 1082.75 54.8394 1092.66 54.8394H1133.25C1143.16 54.8394 1151.19 62.8708 1151.19 72.7781V96.7675C1151.19 106.675 1143.16 114.706 1133.25 114.706H1092.66Z" fill="url(#paint1_linear_28721_34016)"/>
<path d="M1307.34 420.342C1286.51 420.342 1269.66 417.643 1256.78 412.244C1243.91 406.845 1234.63 397.565 1228.95 384.405C1223.65 370.908 1221 352.18 1221 328.222V233.118C1221 223.863 1213.49 216.361 1204.24 216.361C1194.98 216.361 1187.48 208.858 1187.48 199.604V176.935C1187.48 167.68 1194.98 160.177 1204.24 160.177C1213.49 160.177 1221 152.675 1221 143.42V110.797C1221 100.89 1229.03 92.8586 1238.93 92.8586H1278.61C1288.51 92.8586 1296.55 100.89 1296.55 110.797V160.177H1351.32C1361.22 160.177 1369.26 168.209 1369.26 178.116V198.422C1369.26 208.329 1361.22 216.361 1351.32 216.361H1296.55V310.506C1296.55 323.666 1297.11 333.958 1298.25 341.382C1299.76 348.805 1302.79 354.036 1307.34 357.073C1311.88 360.11 1318.89 361.628 1328.36 361.628C1331.01 361.628 1334.98 361.459 1340.29 361.122C1345.59 360.784 1350.89 360.447 1356.19 360.11C1363.29 359.658 1369.51 365.083 1369.81 372.191L1370.85 397.131C1371.24 406.299 1364.64 414.282 1355.55 415.535C1350.32 416.256 1344.66 417.015 1338.58 417.811C1326.08 419.499 1315.67 420.342 1307.34 420.342Z" fill="url(#paint2_linear_28721_34016)"/>
<path d="M1534.13 420.342C1502.65 420.342 1477.61 415.506 1459.03 405.832C1440.82 396.159 1427.73 381.477 1419.77 361.785C1411.8 342.093 1407.82 317.391 1407.82 287.681C1407.82 255.552 1412.75 229.296 1422.61 208.913C1432.85 188.53 1447.65 173.502 1466.99 163.829C1486.34 153.81 1510.23 148.801 1538.68 148.801C1580.78 148.801 1612.46 158.474 1633.7 177.821C1655.32 197.167 1666.13 227.741 1666.13 269.544L1664.17 291.543C1663.35 300.797 1655.59 307.891 1646.3 307.891H1502.35C1492.31 307.891 1483.94 316.214 1485.85 326.075C1487.9 336.613 1491.66 345.062 1497.15 351.421C1505.49 361.094 1519.9 365.93 1540.39 365.93C1552.15 365.93 1565.04 365.758 1579.08 365.412C1593.11 364.721 1606.96 364.03 1620.61 363.339C1626.79 363.035 1632.56 362.731 1637.92 362.427C1648.06 361.853 1656.75 369.68 1657.11 379.824L1657.59 393.392C1657.92 402.536 1651.31 410.462 1642.23 411.643C1636.22 412.426 1629.58 413.253 1622.32 414.124C1607.9 415.851 1592.92 417.233 1577.37 418.269C1562.2 419.651 1547.78 420.342 1534.13 420.342ZM1485.17 245.95C1483.83 255.767 1492.09 263.843 1502 263.843H1572.52C1582.42 263.843 1590.66 255.777 1589.49 245.938C1587.82 231.797 1583.97 221.355 1577.94 214.613C1569.97 205.286 1556.89 200.622 1538.68 200.622C1520.85 200.622 1507.2 205.458 1497.72 215.132C1491.21 222.048 1487.02 232.321 1485.17 245.95Z" fill="url(#paint3_linear_28721_34016)"/>
<path d="M1511.38 141.992C1514.28 148.648 1519.31 159.639 1523.52 167.446C1526.51 172.986 1532.97 172.968 1537.57 168.19L1544.14 161.366C1547.6 157.767 1548.76 152.759 1546.64 148.526C1543.63 142.51 1538.54 134.077 1531.87 129.323C1522.4 122.578 1507.02 121.305 1496.1 121.384C1492.54 121.41 1491.5 125.818 1494.51 127.465C1501.24 131.139 1508.93 136.358 1511.38 141.992Z" fill="url(#paint4_linear_28721_34016)"/>
<path d="M1548.18 133.391C1544.36 137.524 1538.43 144.169 1533.88 149.789C1529.65 155.032 1532.44 160.209 1539.12 161.099L1548.7 162.373C1552.78 162.917 1556.91 161.583 1559.55 158.42C1563.26 153.963 1568.12 147.098 1568.97 140.822C1570.16 132.07 1563.91 121.972 1558.57 115.158C1556.55 112.576 1552.49 114.479 1552.48 117.757C1552.47 123.302 1551.59 129.706 1548.18 133.391Z" fill="url(#paint5_linear_28721_34016)"/>
<path d="M1816.78 420.342C1804.26 420.342 1790.8 419.662 1776.38 418.301C1762.35 417.28 1749.07 415.919 1736.56 414.218C1730.82 413.414 1725.47 412.61 1720.5 411.807C1711.72 410.388 1705.56 402.54 1705.96 393.661L1706.68 377.582C1707.15 367.275 1716.19 359.482 1726.44 360.601C1730.96 361.093 1735.66 361.613 1740.54 362.161C1753.06 363.522 1765.2 364.713 1776.95 365.733C1789.09 366.414 1798.95 366.754 1806.54 366.754C1817.92 366.754 1827.21 365.903 1834.42 364.202C1842.01 362.501 1847.7 359.779 1851.49 356.036C1855.28 351.954 1857.18 346.169 1857.18 338.684C1857.18 332.9 1855.47 328.477 1852.06 325.415C1849.02 322.352 1842.95 319.801 1833.85 317.759C1825.13 315.377 1812.23 312.996 1795.16 310.614C1773.92 307.892 1756.28 303.979 1742.25 298.876C1728.59 293.772 1718.54 286.287 1712.09 276.42C1705.64 266.212 1702.42 252.433 1702.42 235.08C1702.42 213.985 1707.54 197.483 1717.78 185.575C1728.02 173.666 1741.68 165.33 1758.75 160.567C1775.82 155.463 1794.4 152.912 1814.51 152.912C1827.78 152.912 1841.44 153.592 1855.47 154.953C1869.51 155.974 1882.78 157.335 1895.3 159.036C1901.16 159.833 1906.57 160.629 1911.51 161.426C1920.23 162.829 1926.31 170.631 1925.92 179.447L1925.19 195.908C1924.72 206.502 1915.21 214.387 1904.66 213.324C1900.42 212.897 1895.98 212.494 1891.32 212.114C1878.8 210.753 1866.28 209.732 1853.76 209.052C1841.63 208.371 1831.39 208.031 1823.04 208.031C1814.32 208.031 1806.54 208.882 1799.71 210.583C1792.88 211.944 1787.57 214.325 1783.78 217.728C1780.37 221.13 1778.66 226.234 1778.66 233.039C1778.66 237.802 1780.18 241.715 1783.21 244.777C1786.25 247.839 1791.94 250.561 1800.28 252.943C1809.01 254.984 1821.52 257.026 1837.83 259.067C1861.35 262.129 1880.13 266.383 1894.16 271.826C1908.2 277.27 1918.25 285.096 1924.32 295.303C1930.77 305.51 1933.99 319.29 1933.99 336.643C1933.99 367.605 1923.75 389.38 1903.27 401.969C1883.16 414.218 1854.33 420.342 1816.78 420.342Z" fill="url(#paint6_linear_28721_34016)"/>
<defs>
<linearGradient id="paint0_linear_28721_34016" x1="490.601" y1="670.969" x2="2080.89" y2="-240.189" gradientUnits="userSpaceOnUse">
<stop stop-color="#6047ED"/>
<stop offset="1" stop-color="#51BEFB"/>
</linearGradient>
<linearGradient id="paint1_linear_28721_34016" x1="490.601" y1="670.969" x2="2080.89" y2="-240.189" gradientUnits="userSpaceOnUse">
<stop stop-color="#6047ED"/>
<stop offset="1" stop-color="#51BEFB"/>
</linearGradient>
<linearGradient id="paint2_linear_28721_34016" x1="490.601" y1="670.969" x2="2080.89" y2="-240.189" gradientUnits="userSpaceOnUse">
<stop stop-color="#6047ED"/>
<stop offset="1" stop-color="#51BEFB"/>
</linearGradient>
<linearGradient id="paint3_linear_28721_34016" x1="490.601" y1="670.969" x2="2080.89" y2="-240.189" gradientUnits="userSpaceOnUse">
<stop stop-color="#6047ED"/>
<stop offset="1" stop-color="#51BEFB"/>
</linearGradient>
<linearGradient id="paint4_linear_28721_34016" x1="490.601" y1="670.969" x2="2080.89" y2="-240.189" gradientUnits="userSpaceOnUse">
<stop stop-color="#6047ED"/>
<stop offset="1" stop-color="#51BEFB"/>
</linearGradient>
<linearGradient id="paint5_linear_28721_34016" x1="490.601" y1="670.969" x2="2080.89" y2="-240.189" gradientUnits="userSpaceOnUse">
<stop stop-color="#6047ED"/>
<stop offset="1" stop-color="#51BEFB"/>
</linearGradient>
<linearGradient id="paint6_linear_28721_34016" x1="490.601" y1="670.969" x2="2080.89" y2="-240.189" gradientUnits="userSpaceOnUse">
<stop stop-color="#6047ED"/>
<stop offset="1" stop-color="#51BEFB"/>
</linearGradient>
</defs>
</svg>
