<svg width="53" height="33" viewBox="0 0 53 33" fill="none" xmlns="http://www.w3.org/2000/svg">
<path d="M36.2938 24.527C50.3528 19.9668 52.5446 14.2002 52.3761 1.1431C52.3657 0.342428 51.5033 -0.156628 50.8021 0.229958C41.1367 5.5584 36.1991 9.18241 29.4873 15.8876C28.9767 16.3977 29.1592 17.2513 29.5527 17.8563C30.2104 18.8675 29.9124 20.1329 30.7528 21.3706C32.0094 22.7578 33.8232 23.0571 34.8894 24.0854C35.264 24.4467 35.7986 24.6876 36.2938 24.527Z" fill="#5C6AF1"/>
<path d="M17.6706 25.4657C3.34949 21.8109 0.794664 16.1957 0.130669 3.15437C0.0899522 2.35467 0.918791 1.80166 1.64324 2.14277C11.6285 6.84438 16.7871 10.1463 23.9126 16.4102C24.4546 16.8866 24.327 17.7501 23.9728 18.379C23.3809 19.4301 23.759 20.6739 22.9991 21.9626C21.8335 23.4271 20.0424 23.8414 19.044 24.9355C18.6931 25.32 18.1749 25.5944 17.6706 25.4657Z" fill="#5C6AF1"/>
<path d="M23.5778 11.1535C23.8177 11.7096 24.2351 12.6311 24.5781 13.2759C24.8136 13.7187 25.2887 13.7124 25.6078 13.3255L26.1618 12.6536C26.3945 12.3716 26.4611 11.9864 26.3012 11.6576C26.0587 11.1591 25.6418 10.4385 25.1075 10.046C24.3496 9.48929 23.1326 9.42879 22.2972 9.4665C22.0376 9.47821 21.9841 9.82687 22.2117 9.95225C22.7433 10.2451 23.3712 10.6745 23.5778 11.1535Z" fill="#5C6AF1"/>
<path d="M26.3607 10.3485C26.0681 10.7181 25.6074 11.3214 25.2711 11.8141C24.9841 12.2346 25.2214 12.6285 25.7272 12.6869L26.436 12.7687C26.7695 12.8072 27.1029 12.6816 27.2972 12.4079C27.5681 12.0261 27.9155 11.4456 27.9643 10.9226C28.0329 10.1872 27.5304 9.35618 27.1065 8.79816C26.9528 8.59583 26.6391 8.74285 26.6479 8.99678C26.6642 9.46826 26.6172 10.0246 26.3607 10.3485Z" fill="#5C6AF1"/>
<path d="M18.9675 14.1547C21.3318 12.2177 23.4395 12.011 26.4959 12.0154C29.1942 12.0192 30.9077 12.2718 33.1966 13.7008C36.3083 15.6434 37.8218 22.1975 38.0171 23.0987C38.0324 23.1693 38.0546 23.2366 38.085 23.3021C39.0095 25.2949 39.7729 25.8414 40.8266 26.1193C41.1855 26.2139 41.2851 26.6883 40.9742 26.891L39.6724 27.7396C39.499 27.8527 39.6225 28.1211 39.8212 28.0629C40.0328 28.001 40.132 28.2559 39.9295 28.3435C37.0684 29.5809 31.6356 31.7048 27.6056 31.921C22.6657 32.1859 15.7867 30.1301 12.8179 29.1461C12.5425 29.0548 12.6042 28.7227 12.8912 28.7645C13.1883 28.8077 13.3617 28.3737 13.0981 28.2302L11.8112 27.5297C11.4562 27.3364 11.5185 26.8093 11.9039 26.6874C13.5776 26.1581 14.6054 25.482 15.4167 23.156C15.4408 23.0868 15.4561 23.0175 15.4642 22.9447C15.5595 22.0948 16.2947 16.3443 18.9675 14.1547Z" fill="#5C6AF1"/>
<path d="M30.3652 26.9012C28.4209 27.1 25.7786 27.1621 23.0105 27.1169C22.4831 27.1082 22.2559 27.7326 22.692 28.0293C23.8159 28.7939 25.4976 29.7346 26.9137 29.6867C28.2478 29.6416 29.7455 28.7057 30.8185 27.8774C31.2629 27.5343 30.9237 26.8441 30.3652 26.9012Z" fill="white"/>
</svg>
