<svg width="17" height="12" viewBox="0 0 17 12" fill="none" xmlns="http://www.w3.org/2000/svg">
<path d="M8.39404 9.15151C9.29537 9.15151 10.0603 8.84467 10.6887 8.23098C11.3171 7.61729 11.6313 6.87033 11.6313 5.9901C11.6313 5.10986 11.3171 4.3629 10.6887 3.74922C10.0603 3.13553 9.29537 2.82868 8.39404 2.82868C7.49268 2.82868 6.72779 3.13553 6.09937 3.74922C5.47095 4.3629 5.15674 5.10986 5.15674 5.9901C5.15674 6.87033 5.47095 7.61729 6.09937 8.23098C6.72779 8.84467 7.49268 9.15151 8.39404 9.15151ZM8.39404 8.07291C7.79736 8.07291 7.29272 7.87145 6.88012 7.46852C6.46753 7.0656 6.26123 6.57279 6.26123 5.9901C6.26123 5.4074 6.46753 4.9146 6.88012 4.51167C7.29272 4.10875 7.79736 3.90728 8.39404 3.90728C8.99075 3.90728 9.49535 4.10875 9.90796 4.51167C10.3206 4.9146 10.5269 5.4074 10.5269 5.9901C10.5269 6.57279 10.3206 7.0656 9.90796 7.46852C9.49535 7.87145 8.99075 8.07291 8.39404 8.07291ZM8.39404 11.569C6.54053 11.569 4.86475 11.0546 3.3667 10.0255C1.86865 8.99653 0.751467 7.65138 0.0151367 5.9901C0.751467 4.3288 1.86865 2.98365 3.3667 1.95465C4.86475 0.925637 6.54053 0.411133 8.39404 0.411133C10.2476 0.411133 11.9234 0.925637 13.4214 1.95465C14.9194 2.98365 16.0367 4.3288 16.773 5.9901C16.0367 7.65138 14.9194 8.99653 13.4214 10.0255C11.9234 11.0546 10.2476 11.569 8.39404 11.569ZM8.39404 10.4532C9.93021 10.4532 11.3425 10.0472 12.6311 9.23519C13.9197 8.42315 14.9004 7.34145 15.5732 5.9901C14.9004 4.63875 13.9197 3.55705 12.6311 2.745C11.3425 1.93295 9.93021 1.52692 8.39404 1.52692C6.85791 1.52692 5.44555 1.93295 4.15698 2.745C2.86841 3.55705 1.88134 4.63875 1.1958 5.9901C1.88134 7.34145 2.86841 8.42315 4.15698 9.23519C5.44555 10.0472 6.85791 10.4532 8.39404 10.4532Z" fill="#5E5EF0"/>
</svg>
